<svg width="250" height="250" viewBox="0 0 250 250" fill="none" xmlns="http://www.w3.org/2000/svg">
<circle cx="125" cy="125" r="125" fill="#D66536"/>
<path d="M139.234 31.6458L139.234 111.045L218.222 111.045C220.023 110.989 221.816 111.297 223.495 111.951C225.174 112.605 226.704 113.591 227.992 114.851C230.72 117.578 232.253 121.278 232.253 125.135C232.253 128.993 230.72 132.693 227.992 135.42C226.755 136.705 225.269 137.724 223.624 138.414C221.979 139.103 220.211 139.45 218.427 139.431L138.925 138.917L138.925 218.934C138.962 222.287 137.71 225.527 135.428 227.984C132.701 230.712 129.001 232.244 125.144 232.244C121.286 232.244 117.586 230.712 114.859 227.984C113.493 226.728 112.405 225.201 111.661 223.502C110.917 221.802 110.535 219.966 110.539 218.111L111.053 139.226L31.8596 139.226C30.093 139.254 28.3382 138.933 26.6966 138.28C25.0549 137.626 23.5588 136.655 22.2947 135.42C19.5669 132.693 18.0345 128.993 18.0345 125.135C18.0345 121.278 19.5669 117.578 22.2947 114.851C23.5316 113.566 25.0181 112.547 26.6629 111.857C28.3077 111.167 30.0761 110.821 31.8596 110.839L111.362 111.354L111.362 31.3373C111.325 27.9838 112.577 24.7441 114.859 22.2866C117.586 19.5588 121.286 18.0264 125.144 18.0264C129.001 18.0264 132.701 19.5588 135.428 22.2866C137.866 24.7858 139.234 28.1489 139.234 31.6458Z" fill="white"/>
</svg>
