<svg width="68" height="90" viewBox="0 0 68 90" fill="none" xmlns="http://www.w3.org/2000/svg">
<path d="M30.0733 88.1714C4.70745 51.1409 0 47.3434 0 33.7391C0 15.1039 15.005 0 33.5182 0C52.0315 0 67.0365 15.1039 67.0365 33.7391C67.0365 47.3434 62.329 51.1334 36.9632 88.1564C36.5779 88.7148 36.0644 89.1713 35.4663 89.4871C34.8682 89.8029 34.2031 89.9685 33.5277 89.97C32.8523 89.9715 32.1865 89.8087 31.5871 89.4956C30.9876 89.1824 30.4721 88.7282 30.0845 88.1714L30.077 88.1564L30.0733 88.1714Z" fill="#4699B3"/>
<path d="M49.0751 28.2093C49.0691 28.2031 49.0643 28.1957 49.0611 28.1876C49.0579 28.1794 49.0564 28.1706 49.0565 28.1618V21.5588C49.0565 21.4868 49.0429 21.4155 49.0163 21.349C48.9898 21.2825 48.9509 21.2221 48.9019 21.1713C48.8529 21.1204 48.7947 21.0801 48.7308 21.0528C48.6668 21.0254 48.5982 21.0114 48.529 21.0116H44.7689C44.6293 21.0116 44.4954 21.0692 44.3965 21.1718C44.2977 21.2743 44.2419 21.4135 44.2414 21.5588V23.093C44.2428 23.1063 44.2397 23.1198 44.2326 23.131C44.2255 23.1422 44.2149 23.1506 44.2025 23.1546C44.1915 23.1611 44.1786 23.1633 44.1662 23.1607C44.1538 23.1581 44.1426 23.151 44.1349 23.1405L39.1558 17.9925C38.935 17.7694 38.6394 17.6447 38.3316 17.6447C38.0239 17.6447 37.7283 17.7694 37.5074 17.9925L32.6348 23.0191L27.7572 17.9925C27.5377 17.7675 27.242 17.6414 26.9338 17.6414C26.6257 17.6414 26.33 17.7675 26.1105 17.9925L10.9315 33.6336C10.7665 33.8034 10.6538 34.0203 10.6076 34.2569C10.5615 34.4935 10.5839 34.7391 10.6722 34.9623C10.7604 35.1856 10.9105 35.3766 11.1033 35.5109C11.296 35.6452 11.5228 35.7168 11.7548 35.7167H13.8716V48.0325C13.8716 48.1781 13.9271 48.3178 14.0261 48.4207C14.125 48.5236 14.2592 48.5815 14.3991 48.5815H25.2736V52.38C25.2749 52.5244 25.3309 52.6624 25.4293 52.7642C25.5277 52.8659 25.6607 52.9232 25.7994 52.9237H50.8723C51.0119 52.9237 51.1458 52.8661 51.2447 52.7635C51.3436 52.661 51.3994 52.5218 51.3998 52.3765V35.7167H53.5166C53.7486 35.7168 53.9754 35.6452 54.1681 35.5109C54.3609 35.3766 54.511 35.1856 54.5992 34.9623C54.6875 34.7391 54.7099 34.4935 54.6638 34.2569C54.6176 34.0203 54.5049 33.8034 54.3399 33.6336L49.0751 28.2093ZM14.9232 47.4819V35.166C14.9232 35.0942 14.9096 35.023 14.8832 34.9566C14.8567 34.8902 14.818 34.8299 14.7692 34.7791C14.7204 34.7283 14.6624 34.688 14.5986 34.6605C14.5348 34.633 14.4664 34.6188 14.3974 34.6188H11.7548C11.7314 34.6199 11.7083 34.6131 11.6888 34.5995C11.6693 34.5859 11.6545 34.5662 11.6466 34.5432C11.6366 34.5213 11.6337 34.4966 11.6383 34.4728C11.6428 34.4491 11.6547 34.4275 11.672 34.4112L26.8527 18.7701C26.8635 18.758 26.8765 18.7483 26.8911 18.7416C26.9056 18.735 26.9213 18.7316 26.9372 18.7316C26.9531 18.7316 26.9688 18.735 26.9834 18.7416C26.9979 18.7483 27.011 18.758 27.0218 18.7701L31.8859 23.7897L22.3335 33.6424C22.1685 33.8122 22.0558 34.0291 22.0096 34.2657C21.9635 34.5023 21.9859 34.7479 22.0742 34.9711C22.1624 35.1944 22.3125 35.3853 22.5053 35.5197C22.698 35.654 22.9248 35.7256 23.1568 35.7255H25.2736V47.4907L14.9232 47.4819ZM39.4669 34.6206C39.3979 34.6206 39.3295 34.6348 39.2657 34.6623C39.2019 34.6898 39.144 34.7301 39.0951 34.7809C39.0463 34.8317 39.0076 34.892 38.9811 34.9584C38.9547 35.0248 38.9411 35.0959 38.9411 35.1678V40.0818C38.9166 40.0908 38.8928 40.102 38.8701 40.1152C38.4224 40.3519 37.9383 40.5049 37.4398 40.5674C36.5843 40.7029 35.1776 40.7257 33.3416 40.0677C33.213 40.0339 33.0768 40.0517 32.9603 40.1176C32.8437 40.1835 32.7553 40.2927 32.7127 40.4234C32.67 40.5541 32.6763 40.6967 32.7301 40.8229C32.784 40.949 32.8816 41.0494 33.0034 41.104C34.1002 41.5136 35.2551 41.7294 36.4203 41.7427C37.2814 41.7537 38.1369 41.5974 38.9428 41.2817V47.4766H26.3286V35.1607C26.3264 35.0164 26.2696 34.8787 26.1705 34.7776C26.0715 34.6765 25.9381 34.6201 25.7994 34.6206H23.1568C23.1336 34.6216 23.1108 34.6147 23.0916 34.6011C23.0724 34.5875 23.0579 34.5678 23.0503 34.545C23.0401 34.5231 23.037 34.4984 23.0416 34.4745C23.0461 34.4507 23.0581 34.4291 23.0757 34.413L32.6348 24.5603L42.1991 34.42C42.216 34.4366 42.2275 34.4582 42.232 34.4818C42.2365 34.5054 42.2339 34.53 42.2244 34.552C42.2165 34.575 42.2017 34.5947 42.1823 34.6083C42.1628 34.6219 42.1397 34.6287 42.1162 34.6276L39.4669 34.6206ZM53.6214 34.545C53.6138 34.5678 53.5993 34.5875 53.5801 34.6011C53.561 34.6147 53.5381 34.6216 53.5149 34.6206H50.8723C50.7327 34.6206 50.5988 34.6782 50.4999 34.7808C50.401 34.8833 50.3453 35.0225 50.3448 35.1678V51.8276H26.337V48.578H39.4771C39.617 48.578 39.7511 48.5201 39.8501 48.4172C39.949 48.3142 40.0046 48.1746 40.0046 48.029V35.7132H42.1213C42.3533 35.7133 42.5801 35.6417 42.7729 35.5074C42.9657 35.373 43.1157 35.1821 43.204 34.9588C43.2922 34.7355 43.3147 34.49 43.2685 34.2534C43.2223 34.0168 43.1096 33.7998 42.9447 33.6301L33.3923 23.7862L38.2632 18.7684C38.2742 18.7567 38.2873 18.7474 38.3018 18.741C38.3164 18.7347 38.3319 18.7314 38.3477 18.7314C38.3634 18.7314 38.379 18.7347 38.3935 18.741C38.4081 18.7474 38.4212 18.7567 38.4322 18.7684L43.4079 23.9181C43.5647 24.0796 43.7639 24.1892 43.9804 24.2331C44.1969 24.277 44.421 24.2533 44.6246 24.1648C44.8281 24.0764 45.002 23.9273 45.1242 23.7362C45.2465 23.5452 45.3117 23.3208 45.3116 23.0912V22.1042H48.0167V28.1583C48.0177 28.3126 48.048 28.4651 48.1061 28.6071C48.1641 28.749 48.2487 28.8776 48.3549 28.9852L53.5977 34.42C53.6138 34.4356 53.6249 34.4559 53.6294 34.4783C53.634 34.5007 53.6317 34.524 53.6231 34.545H53.6214Z" fill="white"/>
<path d="M34.4003 31.7542C33.877 31.7542 33.3654 31.9093 32.9302 32.2001C32.495 32.4909 32.1559 32.9042 31.9556 33.3877C31.7553 33.8712 31.7029 34.4033 31.805 34.9166C31.9071 35.4299 32.1591 35.9014 32.5292 36.2715C32.8993 36.6415 33.3708 36.8936 33.8841 36.9957C34.3974 37.0978 34.9294 37.0454 35.413 36.8451C35.8965 36.6448 36.3098 36.3056 36.6005 35.8705C36.8913 35.4353 37.0465 34.9237 37.0465 34.4003C37.046 33.6987 36.767 33.0259 36.2709 32.5298C35.7747 32.0337 35.102 31.7547 34.4003 31.7542V31.7542ZM34.4003 35.7605C34.1313 35.7605 33.8683 35.6807 33.6447 35.5313C33.421 35.3818 33.2466 35.1694 33.1437 34.9208C33.0407 34.6723 33.0138 34.3988 33.0663 34.135C33.1188 33.8711 33.2483 33.6288 33.4385 33.4385C33.6288 33.2483 33.8711 33.1188 34.135 33.0663C34.3988 33.0138 34.6723 33.0407 34.9208 33.1437C35.1694 33.2466 35.3818 33.421 35.5313 33.6447C35.6807 33.8683 35.7605 34.1313 35.7605 34.4003C35.76 34.7609 35.6165 35.1066 35.3615 35.3615C35.1066 35.6165 34.7609 35.76 34.4003 35.7605V35.7605Z" fill="white"/>
</svg>
