<svg width="171" height="100" viewBox="0 0 171 100" fill="none" xmlns="http://www.w3.org/2000/svg">
<g clip-path="url(#clip0_4_5)">
<path d="M67.5286 39.6368C67.518 39.6264 67.5096 39.6139 67.504 39.6002C67.4984 39.5864 67.4957 39.5716 67.4959 39.5568V28.4305C67.4959 28.3092 67.472 28.1891 67.4254 28.077C67.3789 27.965 67.3107 27.8632 67.2247 27.7775C67.1387 27.6919 67.0367 27.624 66.9244 27.5779C66.8122 27.5317 66.6919 27.5081 66.5705 27.5085H59.974C59.7291 27.5085 59.4941 27.6056 59.3207 27.7784C59.1472 27.9512 59.0493 28.1857 59.0486 28.4305V31.0157C59.051 31.0382 59.0455 31.0609 59.033 31.0798C59.0206 31.0987 59.002 31.1127 58.9803 31.1195C58.961 31.1305 58.9384 31.1342 58.9166 31.1298C58.8948 31.1255 58.8753 31.1134 58.8617 31.0957L50.1266 22.4212C49.7392 22.0454 49.2205 21.8352 48.6807 21.8352C48.1408 21.8352 47.6221 22.0454 47.2347 22.4212L38.6865 30.8912L30.1294 22.4212C29.7443 22.0421 29.2254 21.8296 28.6849 21.8296C28.1444 21.8296 27.6255 22.0421 27.2404 22.4212L0.611009 48.7768C0.321634 49.0629 0.123884 49.4285 0.0428901 49.8272C-0.0381034 50.2258 0.00131676 50.6396 0.156141 51.0158C0.310965 51.392 0.574202 51.7137 0.912398 51.9401C1.25059 52.1664 1.64848 52.2871 2.05549 52.2869H5.76901V73.0393C5.76901 73.2847 5.86651 73.5199 6.04006 73.6934C6.2136 73.8669 6.44899 73.9643 6.69442 73.9643H25.7722V80.3649C25.7745 80.6082 25.8727 80.8408 26.0453 81.0122C26.218 81.1837 26.4513 81.2803 26.6946 81.281H70.6815C70.9264 81.281 71.1614 81.184 71.3348 81.0112C71.5083 80.8383 71.6061 80.6038 71.6069 80.359V52.2869H75.3204C75.7274 52.2871 76.1253 52.1664 76.4635 51.9401C76.8017 51.7137 77.065 51.392 77.2198 51.0158C77.3746 50.6396 77.414 50.2258 77.333 49.8272C77.252 49.4285 77.0543 49.0629 76.7649 48.7768L67.5286 39.6368ZM7.61391 72.1114V51.359C7.61391 51.2379 7.59005 51.118 7.54369 51.0062C7.49733 50.8943 7.42938 50.7927 7.34373 50.707C7.25807 50.6214 7.15638 50.5535 7.04446 50.5072C6.93255 50.4608 6.81259 50.437 6.69146 50.437H2.05549C2.01438 50.4388 1.97377 50.4274 1.93962 50.4044C1.90546 50.3815 1.87955 50.3482 1.86566 50.3095C1.84814 50.2726 1.843 50.231 1.85102 50.191C1.85903 50.1509 1.87977 50.1145 1.91015 50.0872L28.5425 23.7316C28.5614 23.7111 28.5843 23.6948 28.6099 23.6836C28.6354 23.6724 28.6629 23.6666 28.6908 23.6666C28.7187 23.6666 28.7463 23.6724 28.7718 23.6836C28.7973 23.6948 28.8202 23.7111 28.8391 23.7316L37.3725 32.1897L20.6142 48.7916C20.3248 49.0777 20.1271 49.4433 20.0461 49.842C19.9651 50.2406 20.0045 50.6544 20.1593 51.0306C20.3142 51.4068 20.5774 51.7286 20.9156 51.9549C21.2538 52.1812 21.6517 52.302 22.0587 52.3017H25.7722V72.1262L7.61391 72.1114ZM50.6724 50.44C50.5512 50.44 50.4313 50.4638 50.3194 50.5101C50.2075 50.5565 50.1058 50.6244 50.0201 50.71C49.9344 50.7956 49.8665 50.8973 49.8201 51.0091C49.7738 51.121 49.7499 51.2409 49.7499 51.362V59.6422C49.7069 59.6573 49.6652 59.6762 49.6254 59.6985C48.84 60.0973 47.9906 60.3551 47.1161 60.4604C45.6152 60.6887 43.1474 60.7272 39.9263 59.6185C39.7007 59.5614 39.4619 59.5914 39.2574 59.7025C39.0529 59.8135 38.8978 59.9975 38.823 60.2178C38.7482 60.438 38.7591 60.6783 38.8536 60.8909C38.9482 61.1034 39.1194 61.2726 39.3331 61.3646C41.2573 62.0547 43.2833 62.4185 45.3275 62.4408C46.8382 62.4594 48.339 62.196 49.7529 61.6641V72.1025H27.623V51.3501C27.6191 51.1069 27.5195 50.8749 27.3457 50.7046C27.172 50.5342 26.938 50.4391 26.6946 50.44H22.0587C22.018 50.4416 21.9778 50.43 21.9442 50.4071C21.9105 50.3841 21.8852 50.351 21.8718 50.3125C21.8538 50.2757 21.8484 50.234 21.8564 50.1938C21.8645 50.1536 21.8855 50.1172 21.9163 50.0901L38.6865 33.4882L55.4655 50.102C55.4951 50.1298 55.5153 50.1662 55.5233 50.2061C55.5313 50.2459 55.5266 50.2872 55.51 50.3243C55.4961 50.3631 55.4702 50.3963 55.4361 50.4193C55.4019 50.4422 55.3613 50.4536 55.3202 50.4518L50.6724 50.44ZM75.5043 50.3125C75.491 50.351 75.4656 50.3841 75.432 50.4071C75.3983 50.43 75.3582 50.4416 75.3175 50.44H70.6815C70.4366 50.44 70.2016 50.537 70.0282 50.7098C69.8547 50.8827 69.7569 51.1172 69.7561 51.362V79.4341H27.6379V73.9584H50.6902C50.9356 73.9584 51.171 73.8609 51.3445 73.6875C51.5181 73.514 51.6156 73.2787 51.6156 73.0334V52.281H55.3291C55.7361 52.2812 56.134 52.1605 56.4722 51.9342C56.8104 51.7078 57.0736 51.3861 57.2285 51.0099C57.3833 50.6336 57.4227 50.2199 57.3417 49.8212C57.2607 49.4225 57.063 49.0569 56.7736 48.7709L40.0153 32.1838L48.5605 23.7286C48.5799 23.7089 48.6029 23.6932 48.6284 23.6825C48.6539 23.6718 48.6812 23.6663 48.7088 23.6663C48.7365 23.6663 48.7638 23.6718 48.7893 23.6825C48.8147 23.6932 48.8378 23.7089 48.8571 23.7286L57.5863 32.4061C57.8613 32.6782 58.2107 32.8629 58.5906 32.9368C58.9704 33.0108 59.3636 32.9708 59.7207 32.8218C60.0778 32.6728 60.3828 32.4215 60.5973 32.0996C60.8118 31.7777 60.9262 31.3995 60.9261 31.0127V29.3496H65.6718V39.5509C65.6734 39.8108 65.7267 40.0678 65.8285 40.307C65.9304 40.5462 66.0787 40.7628 66.265 40.9442L75.4628 50.102C75.491 50.1282 75.5105 50.1625 75.5184 50.2002C75.5264 50.2379 75.5225 50.2771 75.5073 50.3125H75.5043Z" fill="white"/>
<path d="M40.5521 43.5088C39.7989 43.5088 39.0626 43.732 38.4363 44.1503C37.81 44.5686 37.3219 45.1631 37.0336 45.8587C36.7453 46.5542 36.6699 47.3196 36.8169 48.058C36.9638 48.7964 37.3265 49.4747 37.8592 50.007C38.3918 50.5394 39.0704 50.9019 39.8091 51.0488C40.5479 51.1957 41.3137 51.1203 42.0096 50.8322C42.7055 50.5441 43.3003 50.0562 43.7187 49.4302C44.1372 48.8042 44.3606 48.0683 44.3606 47.3154C44.3598 46.3061 43.9583 45.3383 43.2442 44.6246C42.5302 43.9109 41.562 43.5096 40.5521 43.5088ZM40.5521 49.272C40.165 49.272 39.7865 49.1573 39.4645 48.9423C39.1426 48.7273 38.8917 48.4217 38.7435 48.0642C38.5954 47.7066 38.5566 47.3132 38.6321 46.9337C38.7077 46.5541 38.8941 46.2055 39.1679 45.9318C39.4417 45.6582 39.7905 45.4718 40.1702 45.3963C40.55 45.3208 40.9436 45.3596 41.3013 45.5077C41.659 45.6558 41.9647 45.9065 42.1798 46.2283C42.3949 46.5501 42.5097 46.9284 42.5097 47.3154C42.509 47.8341 42.3025 48.3313 41.9355 48.6981C41.5686 49.0649 41.0711 49.2713 40.5521 49.272Z" fill="white"/>
<path d="M88.9288 48.4002H97.5511H97.649C99.6452 48.1898 103.421 46.6215 103.421 42.1745C103.421 38.9282 101.36 37.2177 99.3249 36.4261C99.9939 35.8677 100.528 35.1655 100.888 34.3719C101.247 33.5783 101.423 32.7137 101.401 31.8428C101.401 27.0252 97.2634 25.7534 95.0774 25.7534H88.9288C88.6838 25.7534 88.4489 25.8505 88.2754 26.0233C88.102 26.1961 88.0041 26.4306 88.0034 26.6754V47.4871C88.0065 47.7304 88.1053 47.9626 88.2786 48.1335C88.4518 48.3044 88.6854 48.4003 88.9288 48.4002ZM89.8542 27.5885H95.0834C95.5401 27.5885 99.5621 27.7368 99.5621 31.8309C99.5621 34.7955 97.0855 35.6849 96.5753 35.848L89.8542 35.8954V27.5885ZM89.8542 37.7424L96.6761 37.695C97.5654 37.7777 98.4324 38.0197 99.2359 38.4094C100.808 39.198 101.57 40.4254 101.57 42.1627C101.57 45.8833 97.9456 46.491 97.4948 46.5533H89.8542V37.7424Z" fill="white"/>
<path d="M137.068 26.1925V47.8907C137.068 48.136 137.166 48.3713 137.339 48.5447C137.513 48.7182 137.748 48.8157 137.994 48.8157C138.239 48.8157 138.474 48.7182 138.648 48.5447C138.821 48.3713 138.919 48.136 138.919 47.8907V26.1925C138.919 25.9472 138.821 25.712 138.648 25.5385C138.474 25.365 138.239 25.2676 137.994 25.2676C137.748 25.2676 137.513 25.365 137.339 25.5385C137.166 25.712 137.068 25.9472 137.068 26.1925Z" fill="white"/>
<path d="M126.912 69.076C127.581 68.5175 128.115 67.8153 128.475 67.0217C128.834 66.2281 129.01 65.3636 128.989 64.4927C128.989 59.6752 124.836 58.4004 122.665 58.4004H116.516C116.271 58.4004 116.035 58.4978 115.862 58.6713C115.688 58.8448 115.591 59.08 115.591 59.3254V80.1371C115.591 80.3824 115.688 80.6177 115.862 80.7911C116.035 80.9646 116.271 81.062 116.516 81.062H125.139H125.236C127.233 80.8515 131.008 79.2833 131.008 74.8363C131.008 71.5871 128.947 69.8765 126.912 69.076ZM117.456 60.2592H122.686C123.142 60.2592 127.164 60.4074 127.164 64.5016C127.164 67.4662 124.688 68.3556 124.178 68.5157L117.456 68.5631V60.2592ZM125.097 79.2329H117.456V70.4131L124.278 70.3627C125.167 70.4471 126.034 70.689 126.838 71.0772C128.41 71.8657 129.172 73.0931 129.172 74.8304C129.158 78.5629 125.533 79.1558 125.082 79.221L125.097 79.2329Z" fill="white"/>
<path d="M167.88 81.5272C168.001 81.5272 168.122 81.5033 168.234 81.4568C168.346 81.4104 168.448 81.3422 168.534 81.2563C168.62 81.1704 168.688 81.0685 168.735 80.9563C168.781 80.844 168.805 80.7238 168.805 80.6023V58.8893C168.805 58.644 168.708 58.4087 168.534 58.2353C168.36 58.0618 168.125 57.9644 167.88 57.9644C167.634 57.9644 167.399 58.0618 167.225 58.2353C167.052 58.4087 166.954 58.644 166.954 58.8893V80.5875C166.952 80.7102 166.975 80.832 167.02 80.946C167.066 81.0599 167.134 81.1636 167.22 81.2511C167.306 81.3386 167.409 81.408 167.522 81.4554C167.635 81.5029 167.757 81.5273 167.88 81.5272Z" fill="white"/>
<path d="M164.489 54.8928C164.518 54.962 164.553 55.0285 164.593 55.0915C164.636 55.1543 164.685 55.2129 164.739 55.2664C164.793 55.3202 164.852 55.3679 164.917 55.4087C164.978 55.4517 165.045 55.4876 165.115 55.5154C165.184 55.5439 165.256 55.5667 165.329 55.5836C165.403 55.5987 165.479 55.6066 165.554 55.6073C165.631 55.6069 165.707 55.599 165.783 55.5836C165.856 55.5671 165.927 55.5443 165.996 55.5154C166.067 55.4876 166.135 55.4518 166.198 55.4087C166.261 55.3671 166.319 55.3194 166.373 55.2664C166.428 55.2136 166.476 55.1549 166.518 55.0915C166.559 55.0285 166.593 54.962 166.622 54.8928C166.652 54.8235 166.674 54.7509 166.687 54.6764C166.704 54.6025 166.712 54.5269 166.711 54.4511C166.712 54.3753 166.704 54.2997 166.687 54.2258C166.674 54.1505 166.652 54.0769 166.622 54.0064C166.593 53.9373 166.559 53.8708 166.518 53.8078C166.476 53.7449 166.427 53.6863 166.373 53.6329C166.319 53.5798 166.261 53.5321 166.198 53.4906C166.134 53.4486 166.067 53.4129 165.996 53.3838C165.927 53.3559 165.856 53.3341 165.783 53.3186C165.633 53.289 165.479 53.289 165.329 53.3186C165.256 53.3345 165.185 53.3563 165.115 53.3838C165.046 53.4129 164.979 53.4486 164.917 53.4906C164.852 53.5313 164.793 53.5791 164.739 53.6329C164.685 53.6871 164.637 53.7456 164.593 53.8078C164.553 53.8708 164.518 53.9373 164.489 54.0064C164.46 54.0769 164.438 54.1505 164.424 54.2258C164.409 54.2999 164.401 54.3754 164.4 54.4511C164.401 54.5268 164.409 54.6023 164.424 54.6764C164.437 54.7509 164.459 54.8235 164.489 54.8928Z" fill="white"/>
<path d="M170.976 54.2258C170.96 54.1511 170.938 54.0778 170.911 54.0064C170.881 53.9372 170.846 53.8707 170.804 53.8078C170.763 53.7449 170.715 53.6864 170.662 53.6329C170.526 53.5003 170.36 53.4024 170.178 53.3472C169.997 53.292 169.805 53.2812 169.618 53.3156C169.544 53.3325 169.471 53.3553 169.401 53.3838C169.331 53.4129 169.263 53.4486 169.2 53.4906C169.073 53.5734 168.965 53.6814 168.882 53.8078C168.841 53.8707 168.805 53.9372 168.775 54.0064C168.748 54.0778 168.726 54.1511 168.71 54.2258C168.695 54.2999 168.687 54.3754 168.686 54.4511C168.686 54.7577 168.808 55.0518 169.025 55.2687C169.242 55.4855 169.536 55.6073 169.843 55.6073C170.15 55.6073 170.444 55.4855 170.661 55.2687C170.878 55.0518 171 54.7577 171 54.4511C171 54.3754 170.992 54.2999 170.976 54.2258Z" fill="white"/>
<path d="M159.667 69.7398C159.667 63.2473 154.71 57.9673 148.615 57.9673C142.52 57.9673 137.563 63.2473 137.563 69.7398C137.563 76.2324 142.523 81.5272 148.615 81.5272C154.707 81.5272 159.667 76.2324 159.667 69.7398ZM139.411 69.7398C139.411 64.2671 143.54 59.8142 148.606 59.8142C153.672 59.8142 157.801 64.2612 157.801 69.7398C157.801 75.2185 153.672 79.6654 148.606 79.6654C143.54 79.6654 139.405 75.2126 139.405 69.7398H139.411Z" fill="white"/>
<path d="M106.939 77.9963C107.027 77.9083 107.097 77.8034 107.144 77.6877C107.191 77.5721 107.213 77.4482 107.211 77.3235C107.209 77.1988 107.181 77.0759 107.13 76.9621C107.079 76.8483 107.005 76.746 106.914 76.6614C106.822 76.5767 106.714 76.5115 106.597 76.4696C106.479 76.4277 106.354 76.41 106.23 76.4176C106.105 76.4252 105.983 76.4578 105.872 76.5136C105.76 76.5694 105.661 76.6472 105.58 76.7423C104.757 77.6581 103.751 78.3914 102.627 78.8949C101.504 79.3984 100.287 79.6609 99.0549 79.6654C93.983 79.6654 89.8601 75.2185 89.8601 69.7398C89.8601 64.2612 93.9889 59.8142 99.0549 59.8142C100.277 59.8197 101.485 60.0789 102.602 60.5754C103.718 61.072 104.719 61.7951 105.542 62.6988C105.712 62.8653 105.94 62.9599 106.178 62.9628C106.416 62.9657 106.646 62.8768 106.82 62.7145C106.994 62.5523 107.099 62.3292 107.113 62.0916C107.127 61.854 107.048 61.6202 106.894 61.4389C105.901 60.3499 104.693 59.479 103.345 58.8814C101.998 58.2838 100.541 57.9725 99.0668 57.9673C92.9745 57.9673 88.0152 63.2473 88.0152 69.7398C88.0152 76.2324 92.9656 81.5272 99.0668 81.5272C100.553 81.5206 102.021 81.2031 103.377 80.5949C104.733 79.9868 105.946 79.1016 106.939 77.9963Z" fill="white"/>
<path d="M119.723 48.8451C121.209 48.8407 122.678 48.5253 124.036 47.9193C125.393 47.3132 126.608 46.4298 127.603 45.3261C127.758 45.1442 127.836 44.9096 127.822 44.6714C127.807 44.4333 127.701 44.2099 127.526 44.048C127.35 43.8861 127.119 43.7982 126.881 43.8027C126.642 43.8072 126.414 43.9037 126.245 44.072C125.422 44.9877 124.416 45.7209 123.292 46.2244C122.168 46.7278 120.951 46.9904 119.72 46.9952C114.645 46.9952 110.525 42.5482 110.525 37.0696C110.525 31.5909 114.654 27.1469 119.72 27.1469C120.942 27.1522 122.149 27.411 123.266 27.907C124.382 28.4031 125.384 29.1255 126.206 30.0286C126.29 30.1175 126.39 30.1892 126.501 30.2394C126.613 30.2896 126.733 30.3175 126.855 30.3213C126.977 30.3252 127.098 30.305 127.213 30.2619C127.327 30.2188 127.431 30.1536 127.52 30.0701C127.609 29.9866 127.681 29.8863 127.731 29.7752C127.782 29.664 127.809 29.544 127.813 29.422C127.817 29.3 127.797 29.1785 127.754 29.0644C127.711 28.9502 127.645 28.8457 127.562 28.7567C126.567 27.6667 125.357 26.7953 124.007 26.1977C122.658 25.6 121.199 25.2893 119.723 25.2852C113.63 25.2852 108.671 30.5681 108.671 37.0577C108.671 43.5473 113.63 48.8451 119.723 48.8451Z" fill="white"/>
<path d="M137.994 21.8049C138.725 21.8049 139.44 21.5881 140.048 21.1819C140.657 20.7757 141.131 20.1983 141.411 19.5228C141.691 18.8473 141.764 18.1039 141.621 17.3868C141.478 16.6697 141.126 16.011 140.609 15.4939C140.092 14.9769 139.433 14.6248 138.715 14.4822C137.998 14.3395 137.254 14.4127 136.578 14.6925C135.902 14.9724 135.325 15.4462 134.918 16.0541C134.512 16.6621 134.295 17.3769 134.295 18.108C134.296 19.088 134.687 20.0274 135.38 20.7204C136.073 21.4134 137.013 21.8034 137.994 21.8049ZM137.994 16.2581C138.36 16.2581 138.717 16.3666 139.022 16.5699C139.326 16.7731 139.563 17.0621 139.703 17.4001C139.844 17.7381 139.88 18.1101 139.809 18.4689C139.737 18.8278 139.561 19.1574 139.302 19.4161C139.043 19.6748 138.714 19.851 138.355 19.9224C137.996 19.9938 137.623 19.9572 137.285 19.8171C136.947 19.6771 136.658 19.44 136.455 19.1358C136.251 18.8316 136.143 18.4739 136.143 18.108C136.143 17.6174 136.338 17.1469 136.685 16.7999C137.032 16.453 137.503 16.2581 137.994 16.2581Z" fill="white"/>
<path d="M137.994 11.6451C138.239 11.6451 138.474 11.5477 138.648 11.3742C138.821 11.2008 138.919 10.9655 138.919 10.7202V7.34049C138.919 7.09518 138.821 6.85991 138.648 6.68644C138.474 6.51298 138.239 6.41553 137.994 6.41553C137.748 6.41553 137.513 6.51298 137.339 6.68644C137.166 6.85991 137.068 7.09518 137.068 7.34049V10.7202C137.068 10.9655 137.166 11.2008 137.339 11.3742C137.513 11.5477 137.748 11.6451 137.994 11.6451Z" fill="white"/>
<path d="M149.736 17.1948H144.816C144.58 17.2082 144.358 17.3113 144.195 17.4831C144.033 17.6548 143.942 17.8821 143.942 18.1183C143.942 18.3546 144.033 18.5819 144.195 18.7536C144.358 18.9253 144.58 19.0284 144.816 19.0418H149.736C149.862 19.0489 149.988 19.0303 150.106 18.9871C150.224 18.9439 150.333 18.8771 150.424 18.7906C150.516 18.7042 150.589 18.6 150.638 18.4844C150.688 18.3688 150.714 18.2442 150.714 18.1183C150.714 17.9924 150.688 17.8679 150.638 17.7523C150.589 17.6367 150.516 17.5325 150.424 17.446C150.333 17.3596 150.224 17.2927 150.106 17.2495C149.988 17.2063 149.862 17.1877 149.736 17.1948Z" fill="white"/>
<path d="M125.293 17.1948C125.167 17.1877 125.041 17.2063 124.923 17.2495C124.805 17.2927 124.696 17.3596 124.605 17.446C124.513 17.5325 124.44 17.6367 124.391 17.7523C124.341 17.8679 124.315 17.9924 124.315 18.1183C124.315 18.2442 124.341 18.3688 124.391 18.4844C124.44 18.6 124.513 18.7042 124.605 18.7906C124.696 18.8771 124.805 18.9439 124.923 18.9871C125.041 19.0303 125.167 19.0489 125.293 19.0418H131.338C131.463 19.0489 131.589 19.0303 131.708 18.9871C131.826 18.9439 131.934 18.8771 132.026 18.7906C132.117 18.7042 132.19 18.6 132.24 18.4844C132.29 18.3688 132.315 18.2442 132.315 18.1183C132.315 17.9924 132.29 17.8679 132.24 17.7523C132.19 17.6367 132.117 17.5325 132.026 17.446C131.934 17.3596 131.826 17.2927 131.708 17.2495C131.589 17.2063 131.463 17.1877 131.338 17.1948H125.293Z" fill="white"/>
<path d="M142.819 13.8715C142.941 13.8717 143.061 13.8476 143.173 13.8008C143.285 13.754 143.387 13.6853 143.472 13.5987L150.199 6.87792C150.296 6.7951 150.374 6.69323 150.43 6.57867C150.485 6.46411 150.517 6.33933 150.522 6.21214C150.527 6.08494 150.505 5.95808 150.459 5.83948C150.413 5.72088 150.343 5.61311 150.253 5.52289C150.163 5.43268 150.055 5.36197 149.937 5.3152C149.818 5.26842 149.692 5.24659 149.564 5.25106C149.437 5.25553 149.312 5.28621 149.197 5.34118C149.082 5.39614 148.98 5.47422 148.897 5.57051L142.167 12.2943C142.038 12.4236 141.951 12.5881 141.915 12.7671C141.88 12.946 141.898 13.1314 141.968 13.3C142.038 13.4686 142.156 13.6128 142.307 13.7144C142.459 13.8161 142.637 13.8708 142.819 13.8715Z" fill="white"/>
<path d="M132.747 13.5634C132.92 13.7359 133.156 13.8327 133.401 13.8327C133.646 13.8327 133.881 13.7359 134.055 13.5634C134.227 13.3895 134.324 13.1546 134.324 12.9097C134.324 12.6648 134.227 12.4298 134.055 12.256L122.063 0.269957C121.887 0.105811 121.655 0.0162277 121.415 0.0201426C121.175 0.0240576 120.946 0.121164 120.776 0.290936C120.606 0.460708 120.509 0.689841 120.505 0.929903C120.501 1.16996 120.591 1.40214 120.755 1.57736L132.747 13.5634Z" fill="white"/>
<path d="M151.863 33.2688C151.948 33.3595 152.05 33.4322 152.163 33.4827C152.276 33.5332 152.398 33.5604 152.522 33.5627C152.647 33.565 152.77 33.5423 152.885 33.4961C153 33.4498 153.105 33.3809 153.193 33.2934C153.28 33.2059 153.35 33.1017 153.397 32.9868C153.443 32.872 153.467 32.7489 153.465 32.6249C153.463 32.501 153.437 32.3786 153.387 32.2651C153.337 32.1516 153.264 32.0493 153.174 31.9644L143.321 22.0743C143.236 21.9837 143.134 21.9109 143.021 21.8604C142.907 21.8099 142.785 21.7827 142.661 21.7804C142.537 21.7781 142.414 21.8008 142.299 21.847C142.184 21.8933 142.079 21.9622 141.991 22.0497C141.903 22.1372 141.834 22.2415 141.787 22.3563C141.74 22.4711 141.717 22.5942 141.719 22.7182C141.72 22.8422 141.747 22.9645 141.797 23.078C141.847 23.1915 141.919 23.2938 142.01 23.3788L151.863 33.2688Z" fill="white"/>
<path d="M133.711 22.0506C133.537 21.8781 133.302 21.7812 133.057 21.7812C132.811 21.7812 132.576 21.8781 132.402 22.0506L129.866 24.5883C129.781 24.674 129.712 24.7757 129.666 24.8877C129.619 24.9997 129.595 25.1197 129.595 25.241C129.595 25.3622 129.619 25.4823 129.665 25.5944C129.711 25.7065 129.779 25.8084 129.865 25.8942C129.951 25.9801 130.052 26.0482 130.165 26.0948C130.277 26.1413 130.397 26.1653 130.518 26.1655C130.639 26.1656 130.759 26.1418 130.872 26.0956C130.984 26.0493 131.086 25.9814 131.172 25.8957L133.711 23.358C133.883 23.1842 133.98 22.9492 133.98 22.7043C133.98 22.4594 133.883 22.2244 133.711 22.0506Z" fill="white"/>
<path d="M31.3454 97.1418L32.8077 95.0191C32.8368 94.9749 32.8536 94.9238 32.8563 94.8709C32.859 94.8181 32.8474 94.7655 32.8229 94.7186C32.7984 94.6718 32.7618 94.6323 32.7169 94.6043C32.672 94.5763 32.6204 94.5609 32.5675 94.5596H32.0158C31.968 94.5596 31.9209 94.5713 31.8785 94.5935C31.8362 94.6157 31.7998 94.6478 31.7726 94.6871L30.42 96.6793H29.895V94.8679C29.895 94.7893 29.8638 94.7139 29.8082 94.6583C29.7525 94.6027 29.6771 94.5714 29.5984 94.5714H29.026C28.9473 94.5714 28.8719 94.6027 28.8162 94.6583C28.7606 94.7139 28.7294 94.7893 28.7294 94.8679V96.6941H28.237L26.8548 94.7019C26.8276 94.6626 26.7912 94.6305 26.7488 94.6083C26.7065 94.5861 26.6594 94.5745 26.6116 94.5744H26.0599C26.0067 94.5752 25.9548 94.5903 25.9094 94.618C25.8641 94.6458 25.8271 94.6852 25.8022 94.7322C25.7773 94.7792 25.7656 94.832 25.7681 94.885C25.7707 94.9381 25.7874 94.9895 25.8167 95.0339L27.2879 97.1418L25.6773 99.4364C25.6482 99.4806 25.6314 99.5317 25.6287 99.5845C25.626 99.6374 25.6375 99.69 25.6621 99.7368C25.6866 99.7837 25.7232 99.8232 25.7681 99.8512C25.813 99.8791 25.8646 99.8946 25.9175 99.8959H26.487C26.5338 99.896 26.58 99.8851 26.6217 99.864C26.6635 99.8428 26.6997 99.8121 26.7273 99.7744L28.234 97.6665H28.7412V99.6113C28.7412 99.6899 28.7725 99.7653 28.8281 99.8209C28.8837 99.8765 28.9592 99.9078 29.0378 99.9078H29.6014C29.6801 99.9078 29.7555 99.8765 29.8111 99.8209C29.8668 99.7653 29.898 99.6899 29.898 99.6113V97.6754H30.423L31.906 99.7833C31.9336 99.821 31.9698 99.8517 32.0116 99.8728C32.0533 99.894 32.0995 99.9049 32.1463 99.9048H32.7217C32.7751 99.9038 32.8272 99.8885 32.8726 99.8603C32.9179 99.8322 32.9549 99.7924 32.9795 99.745C33.0041 99.6976 33.0154 99.6445 33.0124 99.5913C33.0093 99.538 32.9919 99.4865 32.962 99.4423L31.3454 97.1418Z" fill="white"/>
<path d="M40.0954 94.5718H39.5022C39.4556 94.5725 39.4099 94.5841 39.3686 94.6057C39.3274 94.6274 39.2919 94.6584 39.2649 94.6963L36.6251 98.3991V94.8683C36.6251 94.7896 36.5938 94.7142 36.5382 94.6586C36.4826 94.603 36.4071 94.5718 36.3285 94.5718H35.7946C35.7159 94.5718 35.6405 94.603 35.5848 94.6586C35.5292 94.7142 35.498 94.7896 35.498 94.8683V99.6117C35.498 99.6903 35.5292 99.7657 35.5848 99.8213C35.6405 99.8769 35.7159 99.9081 35.7946 99.9081H36.4115C36.4578 99.9078 36.5034 99.8966 36.5446 99.8755C36.5858 99.8544 36.6215 99.8239 36.6488 99.7866L39.256 96.1638V99.6117C39.256 99.6903 39.2872 99.7657 39.3428 99.8213C39.3985 99.8769 39.4739 99.9081 39.5526 99.9081H40.0983C40.177 99.9081 40.2524 99.8769 40.3081 99.8213C40.3637 99.7657 40.3949 99.6903 40.3949 99.6117V94.8683C40.3949 94.8291 40.3872 94.7903 40.3721 94.7541C40.357 94.718 40.3349 94.6851 40.307 94.6576C40.2792 94.63 40.2461 94.6082 40.2098 94.5935C40.1735 94.5788 40.1346 94.5714 40.0954 94.5718Z" fill="white"/>
<path d="M46.8639 94.5718H42.7589C42.6802 94.5718 42.6048 94.603 42.5492 94.6586C42.4935 94.7142 42.4623 94.7896 42.4623 94.8682V95.2803C42.4623 95.359 42.4935 95.4344 42.5492 95.49C42.6048 95.5456 42.6802 95.5768 42.7589 95.5768H43.9957C44.0286 95.5764 44.0611 95.5826 44.0916 95.5949C44.122 95.6073 44.1496 95.6256 44.1728 95.6488C44.196 95.672 44.2144 95.6997 44.2267 95.73C44.2391 95.7604 44.2453 95.793 44.2449 95.8258V99.6117C44.2449 99.6903 44.2761 99.7657 44.3318 99.8213C44.3874 99.8769 44.4628 99.9081 44.5415 99.9081H45.0843C45.163 99.9081 45.2384 99.8769 45.294 99.8213C45.3496 99.7657 45.3809 99.6903 45.3809 99.6117V95.8169C45.3809 95.784 45.3874 95.7513 45.4001 95.7209C45.4128 95.6905 45.4315 95.6629 45.4549 95.6398C45.4784 95.6166 45.5062 95.5983 45.5368 95.586C45.5673 95.5737 45.6 95.5675 45.633 95.5679H46.8639C46.9426 95.5679 47.018 95.5367 47.0737 95.4811C47.1293 95.4255 47.1605 95.3501 47.1605 95.2714V94.8682C47.1605 94.7896 47.1293 94.7142 47.0737 94.6586C47.018 94.603 46.9426 94.5718 46.8639 94.5718Z" fill="white"/>
<path d="M53.6236 94.5718H50.3609C50.2853 94.5716 50.2124 94.6004 50.1572 94.6522C50.1021 94.704 50.0689 94.775 50.0643 94.8505L50.005 96.1519C49.9936 96.6107 49.9519 97.0683 49.8804 97.5216C49.8393 97.8107 49.7564 98.0923 49.6342 98.3576C49.5568 98.5298 49.4324 98.6767 49.2754 98.7816C49.1999 98.8261 49.1178 98.8581 49.0321 98.8764C48.9674 98.8938 48.9105 98.9326 48.8707 98.9864C48.8308 99.0402 48.8103 99.106 48.8126 99.1729V99.6117C48.8125 99.6524 48.8208 99.6927 48.837 99.7301C48.8532 99.7675 48.8769 99.8012 48.9067 99.829C48.9365 99.8568 48.9717 99.8782 49.0101 99.8918C49.0485 99.9054 49.0893 99.911 49.13 99.9081C49.3424 99.8855 49.5503 99.8316 49.747 99.748C50.023 99.6225 50.2583 99.4223 50.4262 99.1699C50.6401 98.8314 50.7871 98.455 50.8592 98.0611C50.9727 97.4835 51.0382 96.8975 51.055 96.309V95.8288C51.0573 95.7635 51.0849 95.7017 51.1319 95.6563C51.1789 95.611 51.2418 95.5856 51.3071 95.5857H52.5084C52.5413 95.5853 52.5741 95.5914 52.6046 95.6038C52.6352 95.6161 52.663 95.6344 52.6865 95.6576C52.7099 95.6807 52.7285 95.7083 52.7412 95.7387C52.7539 95.7691 52.7605 95.8018 52.7605 95.8347V99.5524C52.7605 99.631 52.7917 99.7064 52.8474 99.762C52.903 99.8176 52.9784 99.8488 53.0571 99.8488H53.6117C53.6904 99.8488 53.7659 99.8176 53.8215 99.762C53.8771 99.7064 53.9084 99.631 53.9084 99.5524V94.8682C53.9084 94.7916 53.8788 94.718 53.8257 94.6627C53.7726 94.6074 53.7002 94.5748 53.6236 94.5718Z" fill="white"/>
<path d="M60.935 95.3041C60.6875 95.0471 60.3923 94.8407 60.0659 94.6964C59.3358 94.4039 58.5211 94.4039 57.7909 94.6964C57.4558 94.8359 57.1529 95.0427 56.9011 95.3041C56.6588 95.5618 56.4685 95.8638 56.3405 96.1935C56.2083 96.5326 56.1418 96.8938 56.1448 97.2578C56.1429 97.615 56.2093 97.9692 56.3405 98.3014C56.468 98.6313 56.6584 98.9334 56.9011 99.1907C57.1474 99.4454 57.4432 99.6472 57.7702 99.7837C58.5023 100.076 59.319 100.076 60.0511 99.7837C60.3794 99.648 60.6763 99.4462 60.9231 99.1907C61.1659 98.9334 61.3562 98.6313 61.4837 98.3014C61.6222 97.9646 61.6938 97.6041 61.6943 97.24C61.6972 96.876 61.6308 96.5148 61.4985 96.1757C61.3696 95.8511 61.1781 95.555 60.935 95.3041ZM60.318 98.1502C60.182 98.4158 59.9772 98.64 59.7248 98.7994C59.4804 98.9575 59.1943 99.039 58.9032 99.0336C58.6179 99.0373 58.338 98.9558 58.0994 98.7994C57.8559 98.64 57.6577 98.4205 57.524 98.162C57.3757 97.8776 57.3013 97.5606 57.3075 97.24C57.3109 96.9288 57.3914 96.6232 57.5418 96.3506C57.6769 96.0907 57.8746 95.8686 58.1172 95.7043C58.3566 95.5413 58.6402 95.4554 58.9299 95.4583C59.2168 95.4564 59.4981 95.5378 59.7397 95.6925C59.9909 95.8506 60.1956 96.0726 60.3329 96.3358C60.4727 96.6204 60.5454 96.9333 60.5454 97.2504C60.5454 97.5675 60.4727 97.8804 60.3329 98.165L60.318 98.1502Z" fill="white"/>
<path d="M67.5078 97.1508C67.7644 97.051 67.9811 96.8698 68.1247 96.6349C68.265 96.4037 68.3369 96.1375 68.3324 95.8671C68.3346 95.6386 68.2745 95.4138 68.1585 95.2168C68.0425 95.0199 67.8749 94.8583 67.6739 94.7494C67.4108 94.6122 67.1162 94.5468 66.8197 94.5597H64.2303C64.1516 94.5597 64.0762 94.5909 64.0206 94.6465C63.9649 94.7021 63.9337 94.7775 63.9337 94.8562V99.5996C63.9337 99.6782 63.9649 99.7536 64.0206 99.8092C64.0762 99.8648 64.1516 99.896 64.2303 99.896H66.7366C67.0673 99.9032 67.3964 99.8479 67.7065 99.733C67.9646 99.6414 68.189 99.474 68.3502 99.2527C68.5072 99.0216 68.5862 98.7463 68.5756 98.4671C68.5844 98.1585 68.4788 97.8576 68.279 97.6222C68.0749 97.3915 67.8063 97.2272 67.5078 97.1508ZM65.0074 95.5914C65.0082 95.5251 65.0351 95.4618 65.0823 95.4151C65.1295 95.3685 65.1932 95.3424 65.2595 95.3424H66.5527C66.6481 95.3385 66.7432 95.3549 66.8317 95.3907C66.9202 95.4265 67 95.4808 67.0659 95.5499C67.1976 95.6911 67.268 95.8787 67.2616 96.0717C67.2614 96.2005 67.231 96.3274 67.1726 96.4423C67.1159 96.5623 67.0278 96.6647 66.9176 96.7387C66.8048 96.818 66.6698 96.8595 66.532 96.8573H65.2536C65.2205 96.8573 65.1877 96.8508 65.1571 96.8381C65.1265 96.8255 65.0987 96.8069 65.0753 96.7835C65.0519 96.7601 65.0333 96.7323 65.0207 96.7017C65.008 96.6712 65.0015 96.6384 65.0015 96.6053L65.0074 95.5914ZM67.3981 98.6835C67.3313 98.8175 67.2286 98.9304 67.1014 99.0096C66.9811 99.0807 66.8437 99.1176 66.704 99.1163H65.2536C65.1867 99.1163 65.1226 99.0898 65.0753 99.0425C65.028 98.9953 65.0015 98.9312 65.0015 98.8644V97.8149C65.0015 97.7818 65.008 97.749 65.0207 97.7184C65.0333 97.6879 65.0519 97.6601 65.0753 97.6367C65.0987 97.6133 65.1265 97.5947 65.1571 97.5821C65.1877 97.5694 65.2205 97.5629 65.2536 97.5629H66.7099C66.8479 97.5609 66.9836 97.5979 67.1014 97.6696C67.2149 97.7375 67.3089 97.8335 67.3743 97.9483C67.4351 98.0594 67.4687 98.1834 67.4722 98.31C67.4773 98.4386 67.4519 98.5666 67.3981 98.6835Z" fill="white"/>
<path d="M75.4776 94.5718H74.8844C74.8379 94.5725 74.7921 94.5841 74.7509 94.6057C74.7097 94.6274 74.6741 94.6584 74.6471 94.6963L72.0073 98.3991V94.8682C72.0073 94.7896 71.9761 94.7142 71.9205 94.6586C71.8648 94.603 71.7894 94.5718 71.7107 94.5718H71.1857C71.1071 94.5718 71.0316 94.603 70.976 94.6586C70.9204 94.7142 70.8891 94.7896 70.8891 94.8682V99.6117C70.8891 99.6903 70.9204 99.7657 70.976 99.8213C71.0316 99.8769 71.1071 99.9081 71.1857 99.9081H71.779C71.8258 99.9082 71.8719 99.8973 71.9137 99.8762C71.9554 99.855 71.9916 99.8243 72.0192 99.7866L74.6264 96.1638V99.6117C74.6264 99.6903 74.6576 99.7657 74.7133 99.8213C74.7689 99.8769 74.8443 99.9081 74.923 99.9081H75.4687C75.5474 99.9081 75.6229 99.8769 75.6785 99.8213C75.7341 99.7657 75.7654 99.6903 75.7654 99.6117V94.8682C75.7654 94.7911 75.7354 94.717 75.6816 94.6617C75.6279 94.6063 75.5548 94.5741 75.4776 94.5718Z" fill="white"/>
<path d="M82.9136 94.5718H82.3678C82.3161 94.5718 82.2651 94.5841 82.2192 94.6079C82.1733 94.6316 82.1337 94.666 82.1038 94.7082L79.4729 98.3991V94.8949C79.4729 94.8092 79.4389 94.727 79.3782 94.6664C79.3176 94.6058 79.2354 94.5718 79.1496 94.5718H78.678C78.6353 94.5714 78.5929 94.5795 78.5534 94.5955C78.5138 94.6116 78.4778 94.6353 78.4475 94.6654C78.4171 94.6954 78.3931 94.7312 78.3766 94.7706C78.3602 94.81 78.3517 94.8522 78.3517 94.8949V99.5731C78.3517 99.6158 78.3602 99.6581 78.3766 99.6975C78.3931 99.7369 78.4171 99.7726 78.4475 99.8027C78.4778 99.8327 78.5138 99.8565 78.5534 99.8725C78.5929 99.8886 78.6353 99.8967 78.678 99.8963H79.2445C79.296 99.8966 79.3468 99.8847 79.3927 99.8615C79.4386 99.8383 79.4783 99.8045 79.5085 99.7629L82.1068 96.1519V99.5731C82.1068 99.6158 82.1153 99.6581 82.1317 99.6975C82.1481 99.7369 82.1722 99.7726 82.2025 99.8027C82.2329 99.8327 82.2689 99.8565 82.3084 99.8725C82.348 99.8886 82.3904 99.8967 82.4331 99.8963H82.9136C82.9563 99.8967 82.9986 99.8886 83.0382 99.8725C83.0778 99.8565 83.1138 99.8327 83.1441 99.8027C83.1744 99.7726 83.1985 99.7369 83.2149 99.6975C83.2314 99.6581 83.2398 99.6158 83.2398 99.5731V94.886C83.2368 94.8016 83.201 94.7217 83.1402 94.6631C83.0793 94.6045 82.9981 94.5717 82.9136 94.5718Z" fill="white"/>
<path d="M79.6242 93.5842C79.9695 93.8336 80.3847 93.9678 80.8106 93.9678C81.2366 93.9678 81.6518 93.8336 81.9971 93.5842C82.1435 93.4491 82.2563 93.2816 82.3263 93.095C82.3447 93.0399 82.3497 92.9811 82.3408 92.9237C82.332 92.8662 82.3094 92.8117 82.2752 92.7647C82.2409 92.7177 82.1959 92.6796 82.144 92.6535C82.092 92.6274 82.0345 92.6141 81.9763 92.6148C81.9016 92.6147 81.8287 92.6374 81.7673 92.6798C81.7058 92.7221 81.6587 92.7822 81.6322 92.8519C81.5973 92.9576 81.5373 93.0532 81.4572 93.1306C81.2779 93.2703 81.0518 93.3361 80.8255 93.3144C80.5894 93.3363 80.3541 93.265 80.17 93.1158C80.1004 93.0461 80.0468 92.9621 80.0128 92.8697C79.9879 92.7969 79.9413 92.7334 79.8793 92.6878C79.8172 92.6422 79.7427 92.6167 79.6657 92.6148C79.6076 92.6141 79.5501 92.6274 79.4981 92.6535C79.4461 92.6796 79.4011 92.7177 79.3668 92.7647C79.3326 92.8117 79.3101 92.8662 79.3012 92.9237C79.2923 92.9811 79.2973 93.0399 79.3157 93.095C79.3781 93.2803 79.4839 93.448 79.6242 93.5842Z" fill="white"/>
<path d="M92.1292 97.1422L93.719 95.0491C93.7568 95.0051 93.7808 94.951 93.7881 94.8934C93.7955 94.8359 93.7857 94.7775 93.7602 94.7254C93.7346 94.6733 93.6943 94.6299 93.6443 94.6005C93.5942 94.5711 93.5367 94.557 93.4787 94.56H92.9893C92.942 94.5594 92.8953 94.5701 92.853 94.5912C92.8106 94.6124 92.774 94.6433 92.7461 94.6815L91.2631 96.6678H90.7292V94.8683C90.7292 94.7897 90.6979 94.7143 90.6423 94.6587C90.5867 94.6031 90.5112 94.5718 90.4326 94.5718H89.9016C89.823 94.5718 89.7475 94.6031 89.6919 94.6587C89.6363 94.7143 89.605 94.7897 89.605 94.8683V99.5939C89.605 99.6725 89.6363 99.7479 89.6919 99.8035C89.7475 99.8591 89.823 99.8904 89.9016 99.8904H90.4148C90.4934 99.8904 90.5689 99.8591 90.6245 99.8035C90.6801 99.7479 90.7114 99.6725 90.7114 99.5939V97.6906H91.2334L92.9122 99.7866C92.9404 99.8223 92.9765 99.8511 93.0177 99.8706C93.0588 99.8902 93.1039 99.9 93.1495 99.8993H93.6686C93.7271 99.9028 93.7853 99.8889 93.8359 99.8594C93.8866 99.8299 93.9273 99.786 93.953 99.7333C93.9787 99.6807 93.9882 99.6216 93.9804 99.5635C93.9725 99.5055 93.9476 99.4511 93.9088 99.4071L92.1292 97.1422Z" fill="white"/>
<path d="M100.565 95.3041C100.318 95.0465 100.022 94.8399 99.6956 94.6963C99.3363 94.5453 98.9494 94.4706 98.5596 94.4769C98.169 94.472 97.7815 94.5467 97.4207 94.6963C97.0955 94.8361 96.8013 95.0392 96.5554 95.2936C96.3094 95.5481 96.1166 95.849 95.988 96.1786C95.7297 96.8575 95.7297 97.6076 95.988 98.2865C96.1154 98.6172 96.3069 98.9194 96.5516 99.1759C96.7973 99.4312 97.0932 99.6331 97.4207 99.7688C98.1518 100.061 98.9675 100.061 99.6986 99.7688C100.028 99.6332 100.326 99.4314 100.574 99.1759C100.816 98.9185 101.007 98.6164 101.134 98.2865C101.265 97.9543 101.332 97.6001 101.33 97.2429C101.333 96.879 101.266 96.5178 101.134 96.1786C101.003 95.8531 100.809 95.5561 100.565 95.3041ZM99.9566 98.1531C99.8249 98.4152 99.6264 98.6381 99.3812 98.7994C99.1354 98.9569 98.8486 99.0383 98.5567 99.0336C98.2723 99.0368 97.9935 98.9553 97.7558 98.7994C97.5114 98.6402 97.3122 98.4206 97.1774 98.162C97.0315 97.8769 96.9581 97.5602 96.9639 97.24C96.9599 96.9256 97.0332 96.6151 97.1774 96.3358C97.3139 96.0759 97.5126 95.8539 97.7558 95.6895C97.995 95.526 98.2788 95.4401 98.5685 95.4434C98.8544 95.4421 99.1346 95.5235 99.3753 95.6776C99.6259 95.8365 99.8305 96.0583 99.9685 96.3209C100.111 96.6053 100.185 96.919 100.185 97.237C100.185 97.5551 100.111 97.8687 99.9685 98.1531H99.9566Z" fill="white"/>
<path d="M109.288 94.5718H108.632C108.576 94.5718 108.52 94.587 108.471 94.6156C108.422 94.6443 108.381 94.6854 108.354 94.7348L106.595 97.8684L104.833 94.7348C104.805 94.6854 104.765 94.6443 104.716 94.6156C104.667 94.587 104.611 94.5718 104.554 94.5718H103.89C103.805 94.5718 103.723 94.6055 103.663 94.6656C103.603 94.7256 103.569 94.807 103.569 94.892V99.5909C103.569 99.6328 103.578 99.6743 103.594 99.713C103.61 99.7517 103.634 99.7868 103.663 99.8163C103.693 99.8458 103.728 99.8691 103.767 99.8848C103.806 99.9006 103.848 99.9085 103.89 99.9081H104.32C104.404 99.9081 104.485 99.8748 104.545 99.8154C104.605 99.756 104.639 99.6753 104.64 99.5909V96.143L106.141 98.7875C106.17 98.836 106.21 98.8762 106.259 98.9042C106.308 98.9323 106.363 98.9472 106.42 98.9476H106.758C106.814 98.9475 106.87 98.9327 106.919 98.9046C106.967 98.8765 107.008 98.8362 107.037 98.7875L108.537 96.1193V99.5672C108.535 99.6107 108.541 99.6543 108.555 99.6954C108.57 99.7365 108.593 99.7741 108.623 99.806C108.652 99.838 108.688 99.8635 108.728 99.881C108.768 99.8986 108.811 99.9078 108.855 99.9081H109.285C109.327 99.9085 109.368 99.9006 109.407 99.8848C109.446 99.8691 109.481 99.8458 109.511 99.8163C109.541 99.7868 109.565 99.7517 109.581 99.713C109.597 99.6743 109.605 99.6328 109.605 99.5909V94.8682C109.599 94.788 109.563 94.713 109.505 94.658C109.446 94.6031 109.368 94.5723 109.288 94.5718Z" fill="white"/>
<path d="M116.537 94.5714H112.494C112.416 94.5714 112.34 94.6027 112.284 94.6583C112.229 94.7139 112.198 94.7893 112.198 94.8679V99.6113C112.198 99.6899 112.229 99.7653 112.284 99.8209C112.34 99.8765 112.416 99.9078 112.494 99.9078H113.028C113.107 99.9078 113.182 99.8765 113.238 99.8209C113.293 99.7653 113.325 99.6899 113.325 99.6113V95.8077C113.325 95.7414 113.352 95.678 113.4 95.6314C113.447 95.5848 113.51 95.5586 113.577 95.5586H115.451C115.518 95.5586 115.581 95.5848 115.629 95.6314C115.676 95.678 115.703 95.7414 115.704 95.8077V99.6113C115.704 99.6899 115.735 99.7653 115.79 99.8209C115.846 99.8765 115.921 99.9078 116 99.9078H116.546C116.625 99.9078 116.7 99.8765 116.756 99.8209C116.811 99.7653 116.842 99.6899 116.842 99.6113V94.8679C116.842 94.8282 116.835 94.7889 116.819 94.7523C116.804 94.7158 116.781 94.6827 116.752 94.655C116.724 94.6274 116.69 94.6057 116.653 94.5914C116.616 94.577 116.577 94.5702 116.537 94.5714Z" fill="white"/>
<path d="M123.813 94.5718H120.55C120.471 94.5718 120.396 94.603 120.34 94.6586C120.285 94.7142 120.253 94.7896 120.253 94.8683L120.194 96.1668C120.183 96.6255 120.143 97.083 120.073 97.5364C120.031 97.8257 119.947 98.1074 119.823 98.3725C119.747 98.5453 119.622 98.6924 119.464 98.7964C119.389 98.8409 119.307 98.8729 119.221 98.8913C119.157 98.9086 119.1 98.9474 119.06 99.0012C119.02 99.0551 118.999 99.1208 119.002 99.1877V99.6265C119.002 99.6675 119.01 99.7081 119.026 99.7457C119.043 99.7833 119.067 99.8171 119.097 99.845C119.127 99.8728 119.163 99.8942 119.201 99.9076C119.24 99.921 119.281 99.9262 119.322 99.9229C119.534 99.8996 119.742 99.8457 119.939 99.7629C120.215 99.6366 120.45 99.4365 120.618 99.1848C120.831 98.846 120.977 98.4696 121.048 98.076C121.165 97.4988 121.23 96.9125 121.244 96.3239L121.259 95.8436C121.261 95.7786 121.287 95.7168 121.334 95.6714C121.381 95.6259 121.443 95.6005 121.508 95.6005H122.712C122.778 95.6005 122.842 95.6268 122.889 95.6735C122.935 95.7202 122.961 95.7835 122.961 95.8495V99.5524C122.961 99.631 122.993 99.7064 123.048 99.762C123.104 99.8176 123.179 99.8488 123.258 99.8488H123.816C123.894 99.8488 123.97 99.8176 124.025 99.762C124.081 99.7064 124.112 99.631 124.112 99.5524V94.8683C124.112 94.8291 124.105 94.7903 124.089 94.7541C124.074 94.718 124.052 94.6851 124.024 94.6576C123.997 94.63 123.964 94.6082 123.927 94.5935C123.891 94.5788 123.852 94.5714 123.813 94.5718Z" fill="white"/>
<path d="M130.602 94.8683C130.16 94.6043 129.652 94.4717 129.137 94.4859C128.626 94.4767 128.123 94.6069 127.681 94.8624C127.268 95.1038 126.929 95.452 126.699 95.8704C126.463 96.2967 126.343 96.7768 126.349 97.2638C126.342 97.9816 126.619 98.6731 127.12 99.1878C127.369 99.4418 127.667 99.6434 127.995 99.7807C128.356 99.9318 128.745 100.006 129.137 100C129.493 100.004 129.847 99.9429 130.181 99.8193C130.487 99.7065 130.77 99.5398 131.017 99.3271C131.142 99.2203 131.254 99.1 131.353 98.9684C131.379 98.9299 131.395 98.8858 131.401 98.8396C131.407 98.7934 131.402 98.7464 131.387 98.7025C131.371 98.6587 131.345 98.6191 131.312 98.587C131.278 98.5549 131.237 98.5312 131.192 98.5178L130.804 98.4259C130.741 98.4089 130.675 98.4128 130.615 98.4369C130.555 98.4609 130.505 98.5039 130.472 98.5593C130.357 98.7259 130.203 98.8622 130.024 98.9566C129.759 99.1059 129.459 99.1836 129.155 99.1819C128.888 99.1825 128.625 99.114 128.392 98.9832C128.152 98.8546 127.947 98.6669 127.799 98.4378C127.642 98.1867 127.547 97.9024 127.52 97.6077H131.572C131.646 97.608 131.718 97.5804 131.773 97.5305C131.828 97.4805 131.862 97.4118 131.869 97.3379C131.869 97.2845 131.869 97.2371 131.869 97.2104C131.871 96.7452 131.755 96.287 131.53 95.8793C131.314 95.4672 130.994 95.1187 130.602 94.8683ZM127.52 96.8635C127.533 96.586 127.616 96.3163 127.763 96.0805C127.91 95.8448 128.116 95.6509 128.36 95.5176C128.719 95.3201 129.141 95.2656 129.539 95.3651C129.937 95.4646 130.283 95.7107 130.507 96.0542C130.659 96.2976 130.748 96.5745 130.768 96.8606L127.52 96.8635Z" fill="white"/>
<path d="M136.585 97.1418L138.192 95.0309C138.224 94.9871 138.244 94.9353 138.248 94.8812C138.253 94.8271 138.243 94.7727 138.218 94.7241C138.194 94.6754 138.157 94.6344 138.111 94.6054C138.065 94.5763 138.012 94.5605 137.958 94.5596H137.442C137.396 94.56 137.351 94.571 137.311 94.5915C137.27 94.6121 137.235 94.6417 137.208 94.6782L135.725 96.6674H135.191V94.8679C135.191 94.7893 135.159 94.7139 135.104 94.6583C135.048 94.6027 134.973 94.5714 134.894 94.5714H134.363C134.284 94.5714 134.209 94.6027 134.153 94.6583C134.098 94.7139 134.066 94.7893 134.066 94.8679V99.6113C134.066 99.6899 134.098 99.7653 134.153 99.8209C134.209 99.8765 134.284 99.9078 134.363 99.9078H134.897C134.976 99.9078 135.051 99.8765 135.107 99.8209C135.162 99.7653 135.194 99.6899 135.194 99.6113V97.6932H135.719L137.4 99.7921C137.428 99.8262 137.463 99.8536 137.502 99.8726C137.542 99.8916 137.585 99.9016 137.629 99.9018H138.177C138.232 99.9008 138.285 99.8846 138.331 99.8553C138.377 99.8259 138.414 99.7844 138.438 99.7353C138.462 99.6863 138.472 99.6316 138.467 99.5773C138.462 99.523 138.442 99.4711 138.409 99.4275L136.585 97.1418Z" fill="white"/>
<path d="M145.041 98.5237L144.51 98.3606C144.453 98.3441 144.392 98.3451 144.335 98.3636C144.279 98.3821 144.229 98.4173 144.193 98.4644C144.138 98.5371 144.075 98.6036 144.006 98.663C143.872 98.7813 143.717 98.8738 143.549 98.9358C143.314 99.0238 143.062 99.0534 142.813 99.0218C142.629 98.9983 142.45 98.9388 142.288 98.8468C142.001 98.6862 141.767 98.445 141.615 98.1531C141.467 97.8677 141.392 97.5497 141.399 97.2281C141.393 96.9064 141.465 96.588 141.609 96.3002C141.741 96.0429 141.94 95.8259 142.185 95.6717C142.43 95.5193 142.714 95.4401 143.003 95.4434C143.263 95.4402 143.519 95.5068 143.745 95.6361C143.901 95.7247 144.038 95.8437 144.148 95.986C144.184 96.0331 144.234 96.0682 144.291 96.0867C144.347 96.1052 144.408 96.1063 144.466 96.0897L145.008 95.9267C145.053 95.9126 145.094 95.888 145.127 95.8551C145.161 95.8221 145.186 95.7817 145.201 95.7371C145.216 95.6925 145.22 95.6451 145.212 95.5986C145.205 95.5522 145.187 95.5082 145.16 95.4701C144.971 95.2164 144.733 95.0036 144.46 94.8446C144.024 94.592 143.527 94.4648 143.024 94.477C142.505 94.464 141.992 94.5931 141.541 94.8505C141.131 95.088 140.794 95.4336 140.568 95.8496C140.341 96.2734 140.225 96.7475 140.23 97.2281C140.227 97.5878 140.296 97.9445 140.432 98.2776C140.563 98.6076 140.757 98.9094 141.001 99.167C141.252 99.4307 141.555 99.6387 141.891 99.7777C142.586 100.056 143.36 100.07 144.065 99.8163C144.365 99.7076 144.64 99.5426 144.878 99.3301C144.998 99.2212 145.106 99.1 145.201 98.9684C145.226 98.93 145.242 98.8864 145.247 98.8409C145.252 98.7954 145.247 98.7493 145.232 98.7063C145.216 98.6632 145.191 98.6243 145.158 98.5926C145.125 98.5609 145.085 98.5373 145.041 98.5237Z" fill="white"/>
</g>
<defs>
<clipPath id="clip0_4_5">
<rect width="171" height="100" fill="white"/>
</clipPath>
</defs>
</svg>
