<svg width="214" height="125" viewBox="0 0 214 125" fill="none" xmlns="http://www.w3.org/2000/svg">
<g clip-path="url(#clip0_401_8)">
<path d="M84.5094 49.5464C84.4962 49.5334 84.4858 49.5178 84.4787 49.5006C84.4717 49.4834 84.4683 49.4649 84.4686 49.4464V35.5385C84.4686 35.3869 84.4386 35.2367 84.3804 35.0966C84.3221 34.9566 84.2368 34.8293 84.1292 34.7223C84.0216 34.6152 83.8939 34.5304 83.7534 34.4727C83.6129 34.415 83.4624 34.3855 83.3105 34.386H75.0552C74.7487 34.386 74.4546 34.5073 74.2376 34.7234C74.0205 34.9394 73.898 35.2325 73.897 35.5385V38.77C73.9 38.7981 73.8932 38.8264 73.8776 38.8501C73.862 38.8737 73.8387 38.8913 73.8117 38.8997C73.7875 38.9135 73.7592 38.9181 73.7319 38.9127C73.7046 38.9072 73.6802 38.8921 73.6632 38.87L62.7316 28.0269C62.2467 27.5571 61.5976 27.2944 60.922 27.2944C60.2464 27.2944 59.5973 27.5571 59.1124 28.0269L48.4147 38.6143L37.7058 28.0269C37.2238 27.553 36.5745 27.2874 35.8981 27.2874C35.2216 27.2874 34.5723 27.553 34.0903 28.0269L0.764673 60.9714C0.402531 61.329 0.155054 61.786 0.0536936 62.2843C-0.0476666 62.7827 0.00166617 63.2998 0.195422 63.7701C0.389179 64.2404 0.71861 64.6426 1.14185 64.9255C1.56509 65.2084 2.06303 65.3593 2.57238 65.359H7.21971V91.2996C7.21971 91.6062 7.34173 91.9003 7.55892 92.1171C7.77611 92.3339 8.07068 92.4558 8.37783 92.4558H32.2529V100.457C32.2559 100.761 32.3787 101.051 32.5947 101.266C32.8108 101.48 33.1028 101.601 33.4074 101.602H88.4552C88.7617 101.602 89.0557 101.48 89.2728 101.264C89.4899 101.048 89.6124 100.755 89.6133 100.449V65.359H94.2607C94.77 65.3593 95.268 65.2084 95.6912 64.9255C96.1145 64.6426 96.4439 64.2404 96.6376 63.7701C96.8314 63.2998 96.8807 62.7827 96.7794 62.2843C96.678 61.786 96.4305 61.329 96.0684 60.9714L84.5094 49.5464ZM9.52853 90.1397V64.1991C9.52853 64.0478 9.49867 63.8979 9.44066 63.7581C9.38264 63.6182 9.29761 63.4912 9.19041 63.3842C9.08321 63.2772 8.95595 63.1923 8.81589 63.1343C8.67584 63.0764 8.52572 63.0466 8.37412 63.0466H2.57238C2.52093 63.0488 2.47012 63.0346 2.42738 63.0059C2.38463 62.9772 2.3522 62.9357 2.33482 62.8873C2.31289 62.8411 2.30646 62.7892 2.3165 62.7391C2.32653 62.689 2.35248 62.6435 2.3905 62.6093L35.7199 29.6649C35.7435 29.6393 35.7722 29.6188 35.8042 29.6048C35.8361 29.5909 35.8706 29.5837 35.9055 29.5837C35.9404 29.5837 35.9749 29.5909 36.0068 29.6048C36.0387 29.6188 36.0674 29.6393 36.0911 29.6649L46.7703 40.2375L25.7979 60.9899C25.4358 61.3475 25.1883 61.8045 25.0869 62.3028C24.9856 62.8012 25.0349 63.3184 25.2287 63.7886C25.4224 64.2589 25.7518 64.6611 26.1751 64.944C26.5983 65.2269 27.0963 65.3778 27.6056 65.3776H32.2529V90.1582L9.52853 90.1397ZM63.4146 63.0503C63.263 63.0503 63.1129 63.0801 62.9728 63.1381C62.8327 63.196 62.7055 63.2809 62.5983 63.3879C62.4911 63.4949 62.406 63.622 62.348 63.7618C62.29 63.9016 62.2602 64.0515 62.2602 64.2028V74.5531C62.2063 74.572 62.1541 74.5956 62.1043 74.6235C61.1214 75.122 60.0585 75.4443 58.964 75.5759C57.0857 75.8612 53.9974 75.9094 49.9663 74.5234C49.6839 74.4521 49.385 74.4896 49.1291 74.6284C48.8733 74.7673 48.6792 74.9973 48.5855 75.2726C48.4919 75.5479 48.5056 75.8483 48.6239 76.114C48.7422 76.3797 48.9564 76.5911 49.2239 76.7062C51.6319 77.5688 54.1675 78.0234 56.7257 78.0514C58.6162 78.0746 60.4944 77.7454 62.2639 77.0804V90.1285H34.5692V64.188C34.5643 63.8839 34.4396 63.594 34.2222 63.3811C34.0047 63.1681 33.712 63.0493 33.4074 63.0503H27.6056C27.5547 63.0523 27.5044 63.0379 27.4623 63.0092C27.4202 62.9805 27.3885 62.9391 27.3718 62.891C27.3492 62.845 27.3425 62.7928 27.3525 62.7426C27.3626 62.6924 27.3889 62.6469 27.4274 62.613L48.4147 41.8606L69.413 62.6279C69.4501 62.6627 69.4753 62.7081 69.4853 62.758C69.4953 62.8078 69.4895 62.8594 69.4687 62.9058C69.4513 62.9542 69.4189 62.9958 69.3762 63.0244C69.3334 63.0531 69.2826 63.0674 69.2312 63.0651L63.4146 63.0503ZM94.4908 62.891C94.4741 62.9391 94.4424 62.9805 94.4003 63.0092C94.3581 63.0379 94.3079 63.0523 94.257 63.0503H88.4552C88.1487 63.0503 87.8547 63.1716 87.6376 63.3877C87.4205 63.6037 87.2981 63.8968 87.2971 64.2028V99.2929H34.5877V92.4484H63.4368C63.744 92.4484 64.0386 92.3265 64.2557 92.1097C64.4729 91.8929 64.595 91.5988 64.595 91.2921V65.3516H69.2423C69.7516 65.3519 70.2496 65.201 70.6728 64.9181C71.0961 64.6351 71.4255 64.233 71.6192 63.7627C71.813 63.2924 71.8623 62.7752 71.761 62.2769C71.6596 61.7786 71.4121 61.3215 71.05 60.964L50.0776 40.2301L60.7717 29.6611C60.7959 29.6365 60.8247 29.6169 60.8566 29.6035C60.8885 29.5902 60.9227 29.5833 60.9573 29.5833C60.9918 29.5833 61.0261 29.5902 61.0579 29.6035C61.0898 29.6169 61.1187 29.6365 61.1429 29.6611L72.0671 40.508C72.4112 40.8481 72.8485 41.0789 73.3239 41.1714C73.7992 41.2639 74.2913 41.2138 74.7382 41.0276C75.1851 40.8414 75.5668 40.5273 75.8353 40.1249C76.1037 39.7225 76.2469 39.2497 76.2467 38.7663V36.6873H82.1858V49.439C82.1878 49.7639 82.2545 50.0852 82.3819 50.3842C82.5094 50.6832 82.695 50.9539 82.9282 51.1807L94.4388 62.6279C94.4742 62.6606 94.4985 62.7035 94.5084 62.7506C94.5184 62.7977 94.5135 62.8467 94.4945 62.891H94.4908Z" fill="#151515"/>
<path d="M50.7495 54.3861C49.8069 54.3861 48.8854 54.6652 48.1016 55.188C47.3178 55.7109 46.7069 56.454 46.3462 57.3234C45.9855 58.1929 45.8911 59.1496 46.075 60.0726C46.2589 60.9956 46.7128 61.8435 47.3794 62.5089C48.0459 63.1744 48.8952 63.6276 49.8197 63.8112C50.7442 63.9947 51.7025 63.9005 52.5734 63.5404C53.4443 63.1802 54.1887 62.5704 54.7124 61.7879C55.2361 61.0054 55.5156 60.0854 55.5156 59.1443C55.5146 57.8827 55.0122 56.673 54.1186 55.7808C53.225 54.8887 52.0133 54.3871 50.7495 54.3861V54.3861ZM50.7495 61.5902C50.265 61.5902 49.7913 61.4467 49.3884 61.178C48.9856 60.9092 48.6716 60.5272 48.4861 60.0803C48.3007 59.6334 48.2522 59.1416 48.3467 58.6672C48.4412 58.1927 48.6746 57.7569 49.0172 57.4149C49.3598 57.0728 49.7963 56.8399 50.2716 56.7455C50.7468 56.6511 51.2394 56.6996 51.687 56.8847C52.1347 57.0698 52.5173 57.3833 52.7865 57.7855C53.0557 58.1877 53.1994 58.6606 53.1994 59.1443C53.1984 59.7927 52.94 60.4142 52.4808 60.8727C52.0215 61.3312 51.399 61.5892 50.7495 61.5902V61.5902Z" fill="#151515"/>
<path d="M111.291 60.5007H122.082H122.204C124.702 60.2376 129.428 58.2772 129.428 52.7185C129.428 48.6607 126.848 46.5224 124.301 45.533C125.139 44.835 125.807 43.9573 126.257 42.9652C126.707 41.9732 126.927 40.8925 126.9 39.8038C126.9 33.7819 121.722 32.1921 118.986 32.1921H111.291C110.985 32.1921 110.691 32.3134 110.473 32.5295C110.256 32.7455 110.134 33.0386 110.133 33.3446V59.3593C110.137 59.6633 110.261 59.9536 110.477 60.1673C110.694 60.3809 110.986 60.5007 111.291 60.5007ZM112.449 34.486H118.993C119.565 34.486 124.598 34.6713 124.598 39.789C124.598 43.4948 121.499 44.6065 120.86 44.8104L112.449 44.8696V34.486ZM112.449 47.1784L120.987 47.1191C122.099 47.2225 123.184 47.525 124.19 48.0122C126.157 48.9979 127.111 50.5321 127.111 52.7037C127.111 57.3545 122.575 58.1141 122.011 58.192H112.449V47.1784Z" fill="#151515"/>
<path d="M171.536 32.7407V59.8634C171.536 60.17 171.658 60.4641 171.875 60.6809C172.092 60.8977 172.387 61.0196 172.694 61.0196C173.001 61.0196 173.295 60.8977 173.513 60.6809C173.73 60.4641 173.852 60.17 173.852 59.8634V32.7407C173.852 32.434 173.73 32.1399 173.513 31.9231C173.295 31.7063 173.001 31.5845 172.694 31.5845C172.387 31.5845 172.092 31.7063 171.875 31.9231C171.658 32.1399 171.536 32.434 171.536 32.7407Z" fill="#151515"/>
<path d="M158.826 86.3449C159.663 85.6468 160.331 84.769 160.781 83.777C161.231 82.785 161.451 81.7044 161.424 80.6158C161.424 74.5939 156.228 73.0004 153.51 73.0004H145.816C145.508 73.0004 145.214 73.1222 144.997 73.339C144.779 73.5558 144.657 73.8499 144.657 74.1566V100.171C144.657 100.478 144.779 100.772 144.997 100.989C145.214 101.206 145.508 101.327 145.816 101.327H156.606H156.729C159.227 101.064 163.952 99.1039 163.952 93.5453C163.952 89.4837 161.372 87.3455 158.826 86.3449ZM146.992 75.3239H153.536C154.108 75.3239 159.141 75.5092 159.141 80.6269C159.141 84.3327 156.042 85.4444 155.404 85.6445L146.992 85.7038V75.3239ZM156.554 99.041H146.992V88.0162L155.53 87.9532C156.642 88.0587 157.727 88.3612 158.733 88.8463C160.7 89.8321 161.654 91.3663 161.654 93.5379C161.636 98.2034 157.1 98.9446 156.536 99.0261L156.554 99.041Z" fill="#151515"/>
<path d="M210.095 101.909C210.247 101.909 210.398 101.879 210.538 101.821C210.679 101.763 210.806 101.678 210.914 101.571C211.021 101.463 211.107 101.336 211.165 101.195C211.223 101.055 211.253 100.905 211.253 100.753V73.6118C211.253 73.3051 211.131 73.011 210.914 72.7942C210.697 72.5774 210.402 72.4556 210.095 72.4556C209.788 72.4556 209.493 72.5774 209.276 72.7942C209.059 73.011 208.937 73.3051 208.937 73.6118V100.734C208.934 100.888 208.963 101.04 209.02 101.183C209.077 101.325 209.162 101.455 209.269 101.564C209.377 101.673 209.506 101.76 209.648 101.819C209.789 101.879 209.941 101.909 210.095 101.909V101.909Z" fill="#151515"/>
<path d="M205.852 68.6164C205.888 68.7028 205.932 68.7859 205.982 68.8647C206.036 68.9432 206.097 69.0164 206.164 69.0833C206.232 69.1506 206.306 69.2102 206.387 69.2612C206.464 69.315 206.548 69.3598 206.636 69.3946C206.722 69.4302 206.812 69.4588 206.903 69.4799C206.996 69.4987 207.09 69.5086 207.185 69.5095C207.281 69.509 207.377 69.4991 207.471 69.4799C207.562 69.4593 207.652 69.4308 207.738 69.3946C207.827 69.3598 207.912 69.3151 207.99 69.2612C208.069 69.2092 208.142 69.1497 208.209 69.0833C208.278 69.0173 208.339 68.944 208.391 68.8647C208.442 68.7859 208.485 68.7028 208.521 68.6164C208.559 68.5298 208.586 68.439 208.603 68.3459C208.624 68.2535 208.634 68.159 208.633 68.0642C208.634 67.9695 208.624 67.875 208.603 67.7826C208.586 67.6884 208.559 67.5965 208.521 67.5084C208.485 67.4219 208.442 67.3389 208.391 67.2601C208.338 67.1815 208.277 67.1083 208.209 67.0414C208.142 66.9751 208.069 66.9155 207.99 66.8636C207.911 66.8111 207.826 66.7664 207.738 66.7302C207.651 66.6952 207.562 66.6679 207.471 66.6486C207.283 66.6116 207.09 66.6116 206.903 66.6486C206.812 66.6685 206.722 66.6957 206.636 66.7302C206.548 66.7665 206.465 66.8111 206.387 66.8636C206.306 66.9145 206.232 66.9742 206.164 67.0414C206.098 67.1092 206.037 67.1823 205.982 67.2601C205.932 67.3389 205.888 67.4219 205.852 67.5084C205.815 67.5965 205.788 67.6884 205.771 67.7826C205.751 67.8753 205.741 67.9696 205.741 68.0642C205.742 68.1589 205.752 68.2532 205.771 68.3459C205.787 68.439 205.814 68.5298 205.852 68.6164V68.6164Z" fill="#151515"/>
<path d="M213.97 67.7826C213.95 67.6893 213.923 67.5976 213.889 67.5084C213.852 67.4219 213.807 67.3388 213.755 67.2601C213.703 67.1815 213.643 67.1083 213.577 67.0414C213.407 66.8758 213.199 66.7533 212.972 66.6843C212.745 66.6153 212.504 66.6018 212.27 66.6449C212.178 66.666 212.087 66.6945 211.999 66.7302C211.911 66.7664 211.827 66.8111 211.747 66.8636C211.589 66.9672 211.454 67.1021 211.35 67.2601C211.298 67.3388 211.253 67.4219 211.216 67.5084C211.182 67.5976 211.155 67.6893 211.134 67.7826C211.115 67.8753 211.105 67.9696 211.105 68.0642C211.105 68.4476 211.257 68.8152 211.529 69.0862C211.8 69.3572 212.168 69.5095 212.552 69.5095C212.936 69.5095 213.305 69.3572 213.576 69.0862C213.848 68.8152 214 68.4476 214 68.0642C214 67.9696 213.99 67.8753 213.97 67.7826Z" fill="#151515"/>
<path d="M199.817 87.1749C199.817 79.0592 193.614 72.4592 185.986 72.4592C178.358 72.4592 172.156 79.0592 172.156 87.1749C172.156 95.2906 178.362 101.909 185.986 101.909C193.61 101.909 199.817 95.2906 199.817 87.1749ZM174.468 87.1749C174.468 80.334 179.635 74.7679 185.975 74.7679C192.315 74.7679 197.482 80.3266 197.482 87.1749C197.482 94.0232 192.315 99.5819 185.975 99.5819C179.635 99.5819 174.461 94.0158 174.461 87.1749H174.468Z" fill="#151515"/>
<path d="M133.83 97.4955C133.94 97.3855 134.028 97.2543 134.086 97.1098C134.145 96.9653 134.174 96.8104 134.171 96.6545C134.168 96.4986 134.133 96.3449 134.069 96.2027C134.005 96.0605 133.913 95.9326 133.798 95.8268C133.684 95.721 133.549 95.6395 133.402 95.5872C133.255 95.5348 133.098 95.5127 132.942 95.5221C132.787 95.5316 132.634 95.5724 132.495 95.6422C132.355 95.7119 132.231 95.8091 132.13 95.928C131.1 97.0728 129.841 97.9894 128.434 98.6187C127.028 99.2481 125.505 99.5762 123.963 99.5819C117.616 99.5819 112.457 94.0232 112.457 87.1749C112.457 80.3266 117.624 74.7679 123.963 74.7679C125.493 74.7747 127.004 75.0987 128.402 75.7194C129.799 76.3401 131.052 77.244 132.081 78.3737C132.294 78.5818 132.579 78.7 132.877 78.7036C133.175 78.7073 133.463 78.5961 133.681 78.3933C133.899 78.1905 134.031 77.9116 134.048 77.6146C134.065 77.3176 133.967 77.0254 133.774 76.7987C132.531 75.4375 131.019 74.3489 129.333 73.6019C127.646 72.8549 125.823 72.4658 123.978 72.4592C116.354 72.4592 110.148 79.0592 110.148 87.1749C110.148 95.2906 116.343 101.909 123.978 101.909C125.838 101.901 127.675 101.504 129.372 100.744C131.069 99.9836 132.587 98.8771 133.83 97.4955V97.4955Z" fill="#151515"/>
<path d="M149.828 61.0566C151.689 61.0511 153.527 60.6569 155.226 59.8993C156.924 59.1417 158.445 58.0376 159.691 56.6578C159.884 56.4304 159.982 56.1373 159.964 55.8395C159.946 55.5418 159.813 55.2626 159.594 55.0603C159.374 54.8579 159.085 54.748 158.786 54.7536C158.487 54.7592 158.202 54.8798 157.991 55.0903C156.961 56.2349 155.702 57.1514 154.295 57.7807C152.889 58.41 151.366 58.7382 149.824 58.7442C143.473 58.7442 138.318 53.1855 138.318 46.3372C138.318 39.4889 143.485 33.9339 149.824 33.9339C151.354 33.9404 152.865 34.264 154.262 34.884C155.66 35.5041 156.913 36.4071 157.942 37.536C158.047 37.6472 158.172 37.7367 158.312 37.7995C158.451 37.8623 158.601 37.8971 158.754 37.9019C158.907 37.9067 159.059 37.8815 159.202 37.8276C159.345 37.7737 159.475 37.6922 159.587 37.5878C159.698 37.4834 159.788 37.3582 159.851 37.2192C159.914 37.0802 159.949 36.9302 159.953 36.7777C159.958 36.6253 159.933 36.4734 159.879 36.3307C159.825 36.188 159.743 36.0574 159.639 35.9462C158.394 34.5837 156.879 33.4944 155.19 32.7473C153.501 32.0003 151.675 31.6119 149.828 31.6067C142.204 31.6067 135.998 38.2104 135.998 46.3224C135.998 54.4344 142.204 61.0566 149.828 61.0566Z" fill="#151515"/>
<path d="M172.694 27.256C173.609 27.256 174.504 26.985 175.265 26.4772C176.027 25.9695 176.62 25.2477 176.97 24.4033C177.32 23.5589 177.412 22.6298 177.234 21.7334C177.055 20.837 176.614 20.0136 175.967 19.3673C175.319 18.721 174.495 18.2809 173.597 18.1026C172.699 17.9243 171.768 18.0158 170.922 18.3656C170.077 18.7153 169.354 19.3076 168.845 20.0676C168.336 20.8275 168.065 21.7209 168.065 22.6349C168.067 23.8599 168.555 25.0342 169.423 25.9004C170.29 26.7666 171.467 27.2541 172.694 27.256ZM172.694 20.3225C173.152 20.3225 173.6 20.4581 173.981 20.7122C174.361 20.9663 174.658 21.3275 174.834 21.75C175.009 22.1725 175.055 22.6375 174.965 23.086C174.876 23.5346 174.655 23.9466 174.332 24.27C174.008 24.5934 173.595 24.8137 173.146 24.9029C172.696 24.9921 172.231 24.9463 171.807 24.7713C171.384 24.5963 171.022 24.2999 170.768 23.9196C170.513 23.5393 170.377 23.0923 170.377 22.6349C170.377 22.0216 170.622 21.4335 171.056 20.9998C171.49 20.5661 172.079 20.3225 172.694 20.3225V20.3225Z" fill="url(#paint0_linear_401_8)"/>
<path d="M172.694 14.5563C173.001 14.5563 173.295 14.4345 173.513 14.2177C173.73 14.0008 173.852 13.7067 173.852 13.4001V9.17549C173.852 8.86885 173.73 8.57476 173.513 8.35793C173.295 8.1411 173.001 8.01929 172.694 8.01929C172.387 8.01929 172.092 8.1411 171.875 8.35793C171.658 8.57476 171.536 8.86885 171.536 9.17549V13.4001C171.536 13.7067 171.658 14.0008 171.875 14.2177C172.092 14.4345 172.387 14.5563 172.694 14.5563V14.5563Z" fill="url(#paint1_linear_401_8)"/>
<path d="M187.389 21.4936H181.231C180.936 21.5103 180.658 21.6392 180.455 21.8538C180.252 22.0685 180.139 22.3526 180.139 22.6479C180.139 22.9432 180.252 23.2273 180.455 23.442C180.658 23.6566 180.936 23.7855 181.231 23.8023H187.389C187.547 23.8112 187.704 23.7879 187.852 23.7339C188 23.6799 188.136 23.5963 188.25 23.4883C188.365 23.3802 188.456 23.2499 188.518 23.1054C188.581 22.9609 188.613 22.8053 188.613 22.6479C188.613 22.4906 188.581 22.3349 188.518 22.1904C188.456 22.0459 188.365 21.9156 188.25 21.8075C188.136 21.6995 188 21.6159 187.852 21.5619C187.704 21.5079 187.547 21.4846 187.389 21.4936Z" fill="url(#paint2_linear_401_8)"/>
<path d="M156.799 21.4936C156.642 21.4846 156.484 21.5079 156.336 21.5619C156.188 21.6159 156.053 21.6995 155.938 21.8075C155.824 21.9156 155.732 22.0459 155.67 22.1904C155.608 22.3349 155.576 22.4906 155.576 22.6479C155.576 22.8053 155.608 22.9609 155.67 23.1054C155.732 23.2499 155.824 23.3802 155.938 23.4883C156.053 23.5963 156.188 23.6799 156.336 23.7339C156.484 23.7879 156.642 23.8112 156.799 23.8023H164.364C164.521 23.8112 164.679 23.7879 164.827 23.7339C164.975 23.6799 165.111 23.5963 165.225 23.4883C165.34 23.3802 165.431 23.2499 165.493 23.1054C165.556 22.9609 165.588 22.8053 165.588 22.6479C165.588 22.4906 165.556 22.3349 165.493 22.1904C165.431 22.0459 165.34 21.9156 165.225 21.8075C165.111 21.6995 164.975 21.6159 164.827 21.5619C164.679 21.5079 164.521 21.4846 164.364 21.4936H156.799Z" fill="url(#paint3_linear_401_8)"/>
<path d="M178.733 17.3394C178.885 17.3396 179.036 17.3095 179.176 17.251C179.316 17.1924 179.443 17.1066 179.55 16.9984L187.968 8.59739C188.089 8.49388 188.188 8.36654 188.257 8.22334C188.327 8.08014 188.366 7.92416 188.372 7.76517C188.378 7.60618 188.352 7.4476 188.294 7.29935C188.236 7.15111 188.148 7.01638 188.036 6.90362C187.923 6.79085 187.789 6.70247 187.64 6.644C187.492 6.58553 187.333 6.55824 187.174 6.56382C187.015 6.56941 186.858 6.60776 186.715 6.67647C186.571 6.74518 186.443 6.84277 186.339 6.96314L177.916 15.3679C177.755 15.5296 177.646 15.7352 177.601 15.9588C177.557 16.1825 177.58 16.4143 177.667 16.625C177.755 16.8357 177.902 17.0159 178.092 17.1431C178.282 17.2702 178.505 17.3385 178.733 17.3394V17.3394Z" fill="url(#paint4_linear_401_8)"/>
<path d="M166.127 16.954C166.345 17.1696 166.639 17.2906 166.946 17.2906C167.252 17.2906 167.547 17.1696 167.764 16.954C167.98 16.7367 168.101 16.443 168.101 16.1368C168.101 15.8307 167.98 15.537 167.764 15.3197L152.757 0.337202C152.538 0.13202 152.247 0.0200405 151.946 0.0249342C151.646 0.0298278 151.359 0.151211 151.146 0.363425C150.934 0.57564 150.812 0.862057 150.807 1.16213C150.802 1.46221 150.914 1.75243 151.12 1.97146L166.127 16.954Z" fill="url(#paint5_linear_401_8)"/>
<path d="M190.051 41.5864C190.157 41.6997 190.284 41.7906 190.426 41.8538C190.568 41.9169 190.721 41.9509 190.876 41.9537C191.031 41.9566 191.186 41.9283 191.33 41.8705C191.474 41.8127 191.605 41.7265 191.715 41.6171C191.825 41.5078 191.912 41.3775 191.97 41.2339C192.029 41.0904 192.058 40.9365 192.056 40.7815C192.053 40.6266 192.02 40.4736 191.957 40.3317C191.895 40.1899 191.804 40.062 191.691 39.9558L179.36 27.5933C179.254 27.4799 179.127 27.389 178.985 27.3259C178.843 27.2628 178.69 27.2288 178.535 27.2259C178.38 27.223 178.225 27.2513 178.081 27.3092C177.937 27.367 177.806 27.4531 177.696 27.5625C177.586 27.6719 177.499 27.8022 177.441 27.9457C177.382 28.0893 177.353 28.2431 177.355 28.3981C177.358 28.5531 177.391 28.7061 177.453 28.8479C177.516 28.9898 177.607 29.1176 177.72 29.2238L190.051 41.5864Z" fill="url(#paint6_linear_401_8)"/>
<path d="M167.334 27.5636C167.116 27.348 166.822 27.2269 166.515 27.2269C166.209 27.2269 165.914 27.348 165.697 27.5636L162.523 30.7358C162.416 30.8428 162.33 30.97 162.272 31.11C162.214 31.2499 162.184 31.4 162.183 31.5516C162.183 31.7032 162.213 31.8533 162.271 31.9934C162.329 32.1335 162.414 32.2609 162.521 32.3682C162.628 32.4755 162.756 32.5606 162.896 32.6188C163.036 32.677 163.187 32.707 163.338 32.7072C163.49 32.7074 163.641 32.6777 163.781 32.6198C163.921 32.562 164.049 32.4771 164.156 32.37L167.334 29.1979C167.55 28.9806 167.671 28.6869 167.671 28.3807C167.671 28.0746 167.55 27.7809 167.334 27.5636V27.5636Z" fill="url(#paint7_linear_401_8)"/>
<path d="M39.2276 121.428L41.0576 118.774C41.0941 118.719 41.115 118.655 41.1184 118.589C41.1217 118.523 41.1073 118.457 41.0767 118.399C41.046 118.34 41.0002 118.291 40.9439 118.256C40.8877 118.221 40.8232 118.201 40.7569 118.2H40.0665C40.0067 118.2 39.9477 118.214 39.8947 118.242C39.8417 118.27 39.7963 118.31 39.7621 118.359L38.0695 120.849H37.4125V118.585C37.4125 118.487 37.3734 118.393 37.3038 118.323C37.2342 118.254 37.1398 118.215 37.0413 118.215H36.3249C36.2265 118.215 36.132 118.254 36.0624 118.323C35.9928 118.393 35.9537 118.487 35.9537 118.585V120.868H35.3375L33.6078 118.378C33.5737 118.329 33.5282 118.288 33.4752 118.261C33.4222 118.233 33.3632 118.218 33.3034 118.218H32.613C32.5464 118.219 32.4814 118.238 32.4247 118.273C32.3679 118.308 32.3216 118.357 32.2905 118.416C32.2594 118.474 32.2446 118.54 32.2478 118.607C32.251 118.673 32.272 118.737 32.3086 118.793L34.1497 121.428L32.1341 124.296C32.0977 124.351 32.0767 124.415 32.0734 124.481C32.07 124.547 32.0844 124.613 32.1151 124.671C32.1458 124.73 32.1916 124.779 32.2478 124.814C32.304 124.849 32.3686 124.869 32.4348 124.87H33.1475C33.2061 124.87 33.2638 124.857 33.3161 124.83C33.3683 124.804 33.4136 124.766 33.4482 124.718L35.3338 122.084H35.9686V124.514C35.9686 124.613 36.0077 124.707 36.0773 124.777C36.1469 124.846 36.2413 124.885 36.3397 124.885H37.045C37.1435 124.885 37.2379 124.846 37.3075 124.777C37.3771 124.707 37.4162 124.613 37.4162 124.514V122.095H38.0732L39.9292 124.729C39.9637 124.777 40.009 124.815 40.0612 124.841C40.1135 124.868 40.1713 124.882 40.2298 124.881H40.95C41.0168 124.88 41.082 124.861 41.1388 124.826C41.1956 124.791 41.2418 124.741 41.2726 124.682C41.3034 124.622 41.3176 124.556 41.3137 124.489C41.3098 124.423 41.2881 124.359 41.2506 124.303L39.2276 121.428Z" fill="#151515"/>
<path d="M50.1778 118.215H49.4354C49.3772 118.215 49.3199 118.23 49.2683 118.257C49.2167 118.284 49.1723 118.323 49.1385 118.37L45.8348 122.999V118.585C45.8348 118.487 45.7957 118.393 45.7261 118.323C45.6565 118.254 45.5621 118.215 45.4637 118.215H44.7955C44.6971 118.215 44.6026 118.254 44.533 118.323C44.4634 118.393 44.4243 118.487 44.4243 118.585V124.514C44.4243 124.613 44.4634 124.707 44.533 124.776C44.6026 124.846 44.6971 124.885 44.7955 124.885H45.5676C45.6255 124.885 45.6826 124.871 45.7341 124.844C45.7857 124.818 45.8304 124.78 45.8645 124.733L49.1273 120.205V124.514C49.1273 124.613 49.1664 124.707 49.236 124.776C49.3057 124.846 49.4001 124.885 49.4985 124.885H50.1815C50.28 124.885 50.3744 124.846 50.444 124.776C50.5136 124.707 50.5527 124.613 50.5527 124.514V118.585C50.5527 118.536 50.543 118.488 50.5241 118.443C50.5052 118.397 50.4775 118.356 50.4427 118.322C50.4078 118.287 50.3665 118.26 50.321 118.242C50.2755 118.223 50.2269 118.214 50.1778 118.215Z" fill="#151515"/>
<path d="M58.6485 118.215H53.5112C53.4128 118.215 53.3183 118.254 53.2487 118.323C53.1791 118.393 53.14 118.487 53.14 118.585V119.1C53.14 119.199 53.1791 119.293 53.2487 119.362C53.3183 119.432 53.4128 119.471 53.5112 119.471H55.0591C55.1002 119.47 55.1409 119.478 55.179 119.494C55.217 119.509 55.2516 119.532 55.2807 119.561C55.3097 119.59 55.3327 119.625 55.3482 119.663C55.3637 119.701 55.3714 119.741 55.3709 119.782V124.515C55.3709 124.613 55.41 124.707 55.4796 124.777C55.5492 124.846 55.6436 124.885 55.7421 124.885H56.4214C56.5198 124.885 56.6142 124.846 56.6838 124.777C56.7534 124.707 56.7925 124.613 56.7925 124.515V119.771C56.7925 119.73 56.8007 119.689 56.8166 119.651C56.8325 119.613 56.8558 119.579 56.8852 119.55C56.9145 119.521 56.9493 119.498 56.9876 119.482C57.0259 119.467 57.0668 119.459 57.1081 119.46H58.6485C58.747 119.46 58.8414 119.421 58.911 119.351C58.9806 119.282 59.0197 119.188 59.0197 119.089V118.585C59.0197 118.487 58.9806 118.393 58.911 118.323C58.8414 118.254 58.747 118.215 58.6485 118.215Z" fill="#151515"/>
<path d="M67.108 118.215H63.0249C62.9302 118.215 62.839 118.251 62.77 118.315C62.701 118.38 62.6594 118.469 62.6537 118.563L62.5794 120.19C62.5651 120.763 62.513 121.335 62.4235 121.902C62.3721 122.263 62.2684 122.615 62.1155 122.947C62.0186 123.162 61.8629 123.346 61.6663 123.477C61.5719 123.533 61.4691 123.573 61.3619 123.596C61.281 123.617 61.2097 123.666 61.1598 123.733C61.11 123.8 61.0844 123.882 61.0873 123.966V124.515C61.0871 124.565 61.0975 124.616 61.1178 124.663C61.138 124.709 61.1677 124.751 61.205 124.786C61.2423 124.821 61.2863 124.848 61.3344 124.865C61.3825 124.882 61.4335 124.889 61.4844 124.885C61.7503 124.857 62.0105 124.789 62.2565 124.685C62.6019 124.528 62.8964 124.278 63.1065 123.962C63.3742 123.539 63.5582 123.069 63.6485 122.576C63.7905 121.854 63.8724 121.122 63.8935 120.386V119.786C63.8964 119.704 63.9309 119.627 63.9897 119.57C64.0486 119.514 64.1272 119.482 64.209 119.482H65.7123C65.7536 119.482 65.7945 119.489 65.8328 119.505C65.871 119.52 65.9058 119.543 65.9352 119.572C65.9645 119.601 65.9878 119.635 66.0037 119.673C66.0196 119.711 66.0278 119.752 66.0278 119.793V124.44C66.0278 124.539 66.0669 124.633 66.1365 124.702C66.2062 124.772 66.3006 124.811 66.399 124.811H67.0931C67.1916 124.811 67.286 124.772 67.3556 124.702C67.4252 124.633 67.4643 124.539 67.4643 124.44V118.585C67.4644 118.49 67.4274 118.397 67.3609 118.328C67.2945 118.259 67.2038 118.219 67.108 118.215V118.215Z" fill="#151515"/>
<path d="M76.2578 119.13C75.9481 118.809 75.5787 118.551 75.1702 118.37C74.2565 118.005 73.2369 118.005 72.3232 118.37C71.9038 118.545 71.5247 118.803 71.2096 119.13C70.9063 119.452 70.6682 119.83 70.508 120.242C70.3425 120.666 70.2594 121.117 70.2631 121.572C70.2607 122.019 70.3438 122.461 70.508 122.877C70.6676 123.289 70.9058 123.667 71.2096 123.988C71.5178 124.307 71.8879 124.559 72.2972 124.729C73.2134 125.095 74.2354 125.095 75.1517 124.729C75.5626 124.56 75.9341 124.308 76.243 123.988C76.5467 123.667 76.785 123.289 76.9445 122.877C77.1179 122.456 77.2074 122.005 77.2081 121.55C77.2117 121.095 77.1286 120.643 76.9631 120.22C76.8017 119.814 76.5621 119.444 76.2578 119.13V119.13ZM75.4857 122.688C75.3155 123.02 75.0591 123.3 74.7434 123.499C74.4375 123.697 74.0794 123.799 73.7151 123.792C73.3581 123.796 73.0078 123.695 72.7092 123.499C72.4045 123.3 72.1564 123.025 71.9891 122.702C71.8036 122.347 71.7104 121.951 71.7181 121.55C71.7225 121.161 71.8232 120.779 72.0114 120.438C72.1804 120.113 72.4279 119.836 72.7315 119.63C73.0311 119.426 73.386 119.319 73.7486 119.323C74.1076 119.32 74.4596 119.422 74.7619 119.615C75.0764 119.813 75.3326 120.091 75.5043 120.42C75.6793 120.775 75.7702 121.167 75.7702 121.563C75.7702 121.959 75.6793 122.35 75.5043 122.706L75.4857 122.688Z" fill="#151515"/>
<path d="M84.4835 121.439C84.8046 121.314 85.0759 121.087 85.2556 120.794C85.431 120.505 85.5211 120.172 85.5154 119.834C85.5182 119.548 85.443 119.267 85.2978 119.021C85.1526 118.775 84.943 118.573 84.6914 118.437C84.3621 118.266 83.9934 118.184 83.6223 118.2H80.3818C80.2834 118.2 80.189 118.239 80.1193 118.308C80.0497 118.378 80.0106 118.472 80.0106 118.57V124.5C80.0106 124.598 80.0497 124.692 80.1193 124.762C80.189 124.831 80.2834 124.87 80.3818 124.87H83.5184C83.9322 124.879 84.344 124.81 84.7322 124.666C85.0552 124.552 85.3359 124.343 85.5377 124.066C85.7342 123.777 85.833 123.433 85.8198 123.084C85.8308 122.698 85.6986 122.322 85.4486 122.028C85.1932 121.74 84.857 121.534 84.4835 121.439ZM81.3543 119.489C81.3553 119.407 81.389 119.327 81.4481 119.269C81.5071 119.211 81.5868 119.178 81.6699 119.178H83.2883C83.4076 119.173 83.5267 119.194 83.6374 119.239C83.7482 119.283 83.848 119.351 83.9304 119.438C84.0953 119.614 84.1834 119.849 84.1754 120.09C84.1752 120.251 84.137 120.41 84.064 120.553C83.9931 120.703 83.8828 120.831 83.7448 120.924C83.6037 121.023 83.4348 121.075 83.2623 121.072H81.6624C81.621 121.072 81.58 121.064 81.5417 121.048C81.5034 121.032 81.4686 121.009 81.4393 120.98C81.41 120.95 81.3868 120.916 81.3709 120.877C81.3551 120.839 81.3469 120.798 81.3469 120.757L81.3543 119.489ZM84.3461 123.355C84.2626 123.522 84.1341 123.663 83.975 123.762C83.8244 123.851 83.6524 123.897 83.4776 123.896H81.6624C81.5787 123.896 81.4985 123.862 81.4393 123.803C81.3802 123.744 81.3469 123.664 81.3469 123.581V122.269C81.3469 122.227 81.3551 122.187 81.3709 122.148C81.3868 122.11 81.41 122.075 81.4393 122.046C81.4686 122.017 81.5034 121.994 81.5417 121.978C81.58 121.962 81.621 121.954 81.6624 121.954H83.485C83.6576 121.951 83.8275 121.998 83.975 122.087C84.1169 122.172 84.2345 122.292 84.3165 122.436C84.3925 122.575 84.4345 122.729 84.4389 122.888C84.4454 123.048 84.4136 123.208 84.3461 123.355V123.355Z" fill="#151515"/>
<path d="M94.4574 118.215H93.7151C93.6568 118.216 93.5996 118.23 93.548 118.257C93.4964 118.284 93.4519 118.323 93.4181 118.37L90.1145 122.999V118.585C90.1145 118.487 90.0754 118.393 90.0058 118.323C89.9362 118.254 89.8417 118.215 89.7433 118.215H89.0863C88.9878 118.215 88.8934 118.254 88.8238 118.323C88.7542 118.393 88.7151 118.487 88.7151 118.585V124.515C88.7151 124.613 88.7542 124.707 88.8238 124.777C88.8934 124.846 88.9878 124.885 89.0863 124.885H89.8287C89.8872 124.885 89.945 124.872 89.9973 124.845C90.0495 124.819 90.0948 124.78 90.1293 124.733L93.3921 120.205V124.515C93.3921 124.613 93.4312 124.707 93.5008 124.777C93.5704 124.846 93.6649 124.885 93.7633 124.885H94.4463C94.5447 124.885 94.6392 124.846 94.7088 124.777C94.7784 124.707 94.8175 124.613 94.8175 124.515V118.585C94.8175 118.489 94.78 118.396 94.7127 118.327C94.6455 118.258 94.5539 118.218 94.4574 118.215Z" fill="#151515"/>
<path d="M103.763 118.215H103.08C103.016 118.215 102.952 118.23 102.894 118.26C102.837 118.289 102.787 118.332 102.75 118.385L99.4574 122.999V118.619C99.4574 118.511 99.4148 118.409 99.3389 118.333C99.2631 118.257 99.1601 118.215 99.0528 118.215H98.4626C98.4092 118.214 98.3562 118.224 98.3067 118.244C98.2571 118.264 98.2121 118.294 98.1741 118.332C98.1362 118.369 98.106 118.414 98.0855 118.463C98.0649 118.512 98.0543 118.565 98.0543 118.619V124.466C98.0543 124.52 98.0649 124.572 98.0855 124.622C98.106 124.671 98.1362 124.716 98.1741 124.753C98.2121 124.791 98.2571 124.82 98.3067 124.841C98.3562 124.861 98.4092 124.871 98.4626 124.87H99.1716C99.236 124.871 99.2996 124.856 99.357 124.827C99.4145 124.798 99.4642 124.755 99.502 124.703L102.754 120.19V124.466C102.754 124.52 102.764 124.572 102.785 124.622C102.805 124.671 102.835 124.716 102.873 124.753C102.911 124.791 102.956 124.82 103.006 124.841C103.055 124.861 103.108 124.871 103.162 124.87H103.763C103.817 124.871 103.87 124.861 103.919 124.841C103.969 124.82 104.014 124.791 104.052 124.753C104.09 124.716 104.12 124.671 104.14 124.622C104.161 124.572 104.172 124.52 104.172 124.466V118.607C104.168 118.502 104.123 118.402 104.047 118.329C103.971 118.255 103.869 118.215 103.763 118.215Z" fill="#151515"/>
<path d="M99.6467 116.981C100.079 117.292 100.598 117.46 101.131 117.46C101.665 117.46 102.184 117.292 102.616 116.981C102.8 116.812 102.941 116.602 103.028 116.369C103.051 116.3 103.058 116.227 103.046 116.155C103.035 116.083 103.007 116.015 102.964 115.956C102.921 115.897 102.865 115.85 102.8 115.817C102.735 115.785 102.663 115.768 102.59 115.769C102.497 115.769 102.406 115.797 102.329 115.85C102.252 115.903 102.193 115.978 102.16 116.065C102.116 116.197 102.041 116.317 101.941 116.414C101.716 116.588 101.433 116.67 101.15 116.643C100.855 116.671 100.56 116.582 100.33 116.395C100.243 116.308 100.175 116.203 100.133 116.088C100.102 115.996 100.044 115.917 99.9659 115.86C99.8883 115.803 99.795 115.771 99.6986 115.769V115.769C99.6258 115.768 99.5539 115.785 99.4888 115.817C99.4238 115.85 99.3674 115.897 99.3246 115.956C99.2817 116.015 99.2535 116.083 99.2424 116.155C99.2313 116.227 99.2375 116.3 99.2606 116.369C99.3387 116.601 99.4711 116.81 99.6467 116.981V116.981Z" fill="#151515"/>
<path d="M115.296 121.428L117.286 118.811C117.333 118.756 117.363 118.689 117.372 118.617C117.381 118.545 117.369 118.472 117.337 118.407C117.305 118.342 117.255 118.287 117.192 118.25C117.13 118.214 117.058 118.196 116.985 118.2H116.373C116.313 118.199 116.255 118.212 116.202 118.239C116.149 118.265 116.103 118.304 116.068 118.352L114.212 120.835H113.544V118.585C113.544 118.487 113.505 118.393 113.435 118.323C113.366 118.254 113.271 118.215 113.173 118.215H112.509C112.41 118.215 112.316 118.254 112.246 118.323C112.176 118.393 112.137 118.487 112.137 118.585V124.492C112.137 124.591 112.176 124.685 112.246 124.754C112.316 124.824 112.41 124.863 112.509 124.863H113.151C113.249 124.863 113.344 124.824 113.413 124.754C113.483 124.685 113.522 124.591 113.522 124.492V122.113H114.175L116.276 124.733C116.311 124.778 116.357 124.814 116.408 124.838C116.46 124.863 116.516 124.875 116.573 124.874H117.223C117.296 124.878 117.369 124.861 117.432 124.824C117.496 124.787 117.546 124.732 117.579 124.667C117.611 124.601 117.623 124.527 117.613 124.454C117.603 124.382 117.572 124.314 117.523 124.259L115.296 121.428Z" fill="#151515"/>
<path d="M125.853 119.13C125.544 118.808 125.174 118.55 124.765 118.37C124.316 118.181 123.831 118.088 123.344 118.096C122.855 118.09 122.37 118.183 121.918 118.37C121.511 118.545 121.143 118.799 120.835 119.117C120.528 119.435 120.286 119.811 120.125 120.223C119.802 121.072 119.802 122.009 120.125 122.858C120.285 123.271 120.525 123.649 120.831 123.97C121.138 124.289 121.509 124.541 121.918 124.711C122.833 125.077 123.854 125.077 124.769 124.711C125.181 124.541 125.554 124.289 125.864 123.97C126.168 123.648 126.406 123.27 126.566 122.858C126.73 122.443 126.813 122 126.811 121.554C126.814 121.099 126.731 120.647 126.566 120.223C126.401 119.816 126.159 119.445 125.853 119.13V119.13ZM125.092 122.691C124.927 123.019 124.679 123.298 124.372 123.499C124.064 123.696 123.705 123.798 123.34 123.792C122.984 123.796 122.635 123.694 122.338 123.499C122.032 123.3 121.783 123.026 121.614 122.702C121.431 122.346 121.339 121.95 121.347 121.55C121.342 121.157 121.433 120.769 121.614 120.42C121.785 120.095 122.033 119.817 122.338 119.612C122.637 119.407 122.992 119.3 123.355 119.304C123.713 119.303 124.063 119.404 124.364 119.597C124.678 119.796 124.934 120.073 125.107 120.401C125.285 120.757 125.378 121.149 125.378 121.546C125.378 121.944 125.285 122.336 125.107 122.691H125.092Z" fill="#151515"/>
<path d="M136.77 118.215H135.949C135.878 118.215 135.809 118.234 135.747 118.27C135.686 118.305 135.635 118.357 135.6 118.419L133.399 122.336L131.194 118.419C131.159 118.357 131.109 118.305 131.047 118.27C130.986 118.234 130.916 118.215 130.845 118.215H130.014C129.908 118.215 129.806 118.257 129.73 118.332C129.655 118.407 129.613 118.509 129.613 118.615V124.489C129.613 124.541 129.623 124.593 129.644 124.641C129.664 124.69 129.693 124.733 129.731 124.77C129.768 124.807 129.812 124.836 129.861 124.856C129.909 124.876 129.961 124.886 130.014 124.885H130.552C130.658 124.885 130.759 124.843 130.834 124.769C130.909 124.695 130.952 124.594 130.953 124.489V120.179L132.831 123.484C132.867 123.545 132.918 123.595 132.979 123.63C133.04 123.665 133.11 123.684 133.18 123.684H133.603C133.674 123.684 133.743 123.666 133.805 123.631C133.866 123.596 133.917 123.545 133.952 123.484L135.831 120.149V124.459C135.827 124.513 135.835 124.568 135.853 124.619C135.871 124.671 135.9 124.718 135.937 124.758C135.974 124.797 136.019 124.829 136.069 124.851C136.119 124.873 136.173 124.885 136.228 124.885H136.766C136.818 124.886 136.87 124.876 136.919 124.856C136.968 124.836 137.012 124.807 137.049 124.77C137.086 124.733 137.116 124.69 137.136 124.641C137.156 124.593 137.167 124.541 137.167 124.489V118.585C137.159 118.485 137.114 118.391 137.041 118.323C136.967 118.254 136.87 118.215 136.77 118.215V118.215Z" fill="#151515"/>
<path d="M145.842 118.215H140.782C140.684 118.215 140.589 118.254 140.52 118.323C140.45 118.393 140.411 118.487 140.411 118.585V124.514C140.411 124.613 140.45 124.707 140.52 124.777C140.589 124.846 140.684 124.885 140.782 124.885H141.45C141.549 124.885 141.643 124.846 141.713 124.777C141.783 124.707 141.822 124.613 141.822 124.514V119.76C141.823 119.677 141.856 119.598 141.915 119.54C141.974 119.481 142.054 119.449 142.137 119.449H144.483C144.566 119.449 144.646 119.481 144.705 119.54C144.764 119.598 144.798 119.677 144.799 119.76V124.514C144.799 124.613 144.838 124.707 144.907 124.777C144.977 124.846 145.071 124.885 145.17 124.885H145.853C145.951 124.885 146.046 124.846 146.115 124.777C146.185 124.707 146.224 124.613 146.224 124.514V118.585C146.224 118.536 146.214 118.486 146.195 118.441C146.175 118.395 146.147 118.354 146.111 118.319C146.076 118.285 146.033 118.258 145.987 118.24C145.941 118.222 145.891 118.213 145.842 118.215Z" fill="#151515"/>
<path d="M154.947 118.215H150.864C150.765 118.215 150.671 118.254 150.601 118.323C150.532 118.393 150.493 118.487 150.493 118.585L150.418 120.208C150.405 120.782 150.354 121.354 150.266 121.92C150.214 122.282 150.109 122.634 149.954 122.965C149.859 123.181 149.703 123.365 149.505 123.495C149.411 123.551 149.308 123.591 149.201 123.614C149.12 123.636 149.049 123.684 148.999 123.751C148.949 123.819 148.923 123.901 148.926 123.985V124.533C148.926 124.584 148.937 124.635 148.957 124.682C148.978 124.729 149.008 124.771 149.045 124.806C149.083 124.841 149.127 124.868 149.176 124.884C149.224 124.901 149.276 124.908 149.327 124.904C149.593 124.874 149.853 124.807 150.099 124.703C150.444 124.546 150.738 124.295 150.949 123.981C151.216 123.557 151.398 123.087 151.487 122.595C151.633 121.873 151.715 121.141 151.732 120.405L151.751 119.804C151.753 119.723 151.787 119.646 151.845 119.589C151.903 119.532 151.981 119.501 152.063 119.501H153.57C153.653 119.501 153.732 119.533 153.79 119.592C153.849 119.65 153.882 119.729 153.882 119.812V124.44C153.882 124.539 153.921 124.633 153.99 124.702C154.06 124.772 154.154 124.811 154.253 124.811H154.951C155.049 124.811 155.144 124.772 155.213 124.702C155.283 124.633 155.322 124.539 155.322 124.44V118.585C155.322 118.536 155.312 118.488 155.293 118.443C155.274 118.397 155.247 118.356 155.212 118.322C155.177 118.287 155.136 118.26 155.09 118.242C155.045 118.223 154.996 118.214 154.947 118.215Z" fill="#151515"/>
<path d="M163.444 118.585C162.89 118.255 162.254 118.089 161.61 118.107C160.971 118.096 160.341 118.259 159.787 118.578C159.271 118.88 158.847 119.315 158.559 119.838C158.264 120.371 158.113 120.971 158.121 121.58C158.112 122.477 158.459 123.341 159.086 123.985C159.398 124.302 159.77 124.554 160.181 124.726C160.633 124.915 161.12 125.008 161.61 125C162.056 125.005 162.498 124.928 162.916 124.774C163.299 124.633 163.654 124.425 163.963 124.159C164.119 124.025 164.26 123.875 164.383 123.71C164.415 123.662 164.436 123.607 164.444 123.549C164.451 123.492 164.445 123.433 164.425 123.378C164.406 123.323 164.374 123.274 164.331 123.234C164.289 123.193 164.238 123.164 164.182 123.147L163.696 123.032C163.618 123.011 163.535 123.016 163.46 123.046C163.385 123.076 163.322 123.13 163.28 123.199C163.136 123.407 162.944 123.578 162.72 123.696C162.388 123.882 162.013 123.979 161.632 123.977C161.298 123.978 160.969 123.892 160.678 123.729C160.377 123.568 160.121 123.334 159.936 123.047C159.74 122.733 159.62 122.378 159.587 122.009H164.657C164.75 122.01 164.84 121.975 164.909 121.913C164.977 121.851 165.02 121.765 165.029 121.672C165.029 121.606 165.029 121.546 165.029 121.513C165.032 120.931 164.886 120.359 164.605 119.849C164.335 119.334 163.935 118.898 163.444 118.585V118.585ZM159.587 121.079C159.602 120.732 159.707 120.395 159.891 120.101C160.075 119.806 160.332 119.563 160.637 119.397C161.087 119.15 161.614 119.082 162.113 119.206C162.611 119.331 163.044 119.638 163.325 120.068C163.514 120.372 163.627 120.718 163.651 121.076L159.587 121.079Z" fill="#151515"/>
<path d="M170.93 121.428L172.942 118.789C172.982 118.734 173.007 118.669 173.013 118.602C173.018 118.534 173.005 118.466 172.975 118.405C172.945 118.345 172.898 118.293 172.841 118.257C172.783 118.221 172.717 118.201 172.649 118.2H172.003C171.946 118.2 171.89 118.214 171.839 118.24C171.788 118.265 171.744 118.303 171.71 118.348L169.854 120.835H169.186V118.585C169.186 118.487 169.147 118.393 169.077 118.323C169.008 118.254 168.913 118.215 168.815 118.215H168.15C168.052 118.215 167.957 118.254 167.888 118.323C167.818 118.393 167.779 118.487 167.779 118.585V124.514C167.779 124.613 167.818 124.707 167.888 124.777C167.957 124.846 168.052 124.885 168.15 124.885H168.818C168.917 124.885 169.011 124.846 169.081 124.777C169.15 124.707 169.19 124.613 169.19 124.514V122.117H169.847L171.951 124.741C171.986 124.783 172.029 124.817 172.079 124.841C172.128 124.865 172.182 124.877 172.237 124.878H172.924C172.992 124.876 173.059 124.856 173.116 124.819C173.174 124.783 173.22 124.731 173.25 124.67C173.28 124.608 173.292 124.54 173.286 124.472C173.279 124.404 173.254 124.339 173.213 124.285L170.93 121.428Z" fill="#151515"/>
<path d="M181.513 123.154L180.849 122.951C180.777 122.93 180.701 122.931 180.63 122.954C180.559 122.978 180.497 123.021 180.452 123.08C180.383 123.171 180.304 123.254 180.218 123.329C180.05 123.477 179.856 123.592 179.646 123.67C179.353 123.78 179.037 123.817 178.726 123.777C178.494 123.748 178.271 123.673 178.069 123.558C177.709 123.358 177.416 123.056 177.226 122.691C177.04 122.334 176.947 121.937 176.955 121.535C176.948 121.133 177.038 120.735 177.219 120.375C177.384 120.054 177.632 119.782 177.939 119.59C178.246 119.399 178.601 119.3 178.963 119.304C179.289 119.3 179.609 119.383 179.891 119.545C180.087 119.656 180.259 119.804 180.396 119.982C180.441 120.041 180.504 120.085 180.575 120.108C180.645 120.131 180.722 120.133 180.793 120.112L181.472 119.908C181.529 119.891 181.58 119.86 181.621 119.819C181.663 119.778 181.695 119.727 181.713 119.671C181.732 119.616 181.737 119.556 181.728 119.498C181.719 119.44 181.696 119.385 181.662 119.338C181.426 119.02 181.128 118.754 180.786 118.556C180.241 118.24 179.619 118.081 178.989 118.096C178.339 118.08 177.698 118.241 177.133 118.563C176.62 118.86 176.199 119.292 175.916 119.812C175.632 120.342 175.486 120.934 175.493 121.535C175.489 121.985 175.575 122.43 175.745 122.847C175.91 123.259 176.151 123.637 176.458 123.959C176.771 124.288 177.151 124.548 177.571 124.722C178.442 125.07 179.41 125.087 180.292 124.77C180.667 124.634 181.012 124.428 181.309 124.162C181.46 124.026 181.595 123.875 181.714 123.71C181.745 123.662 181.765 123.608 181.771 123.551C181.778 123.494 181.771 123.437 181.752 123.383C181.732 123.329 181.701 123.28 181.659 123.241C181.618 123.201 181.568 123.172 181.513 123.154V123.154Z" fill="#151515"/>
</g>
<defs>
<linearGradient id="paint0_linear_401_8" x1="150.114" y1="-0.0519317" x2="190.948" y2="41.1092" gradientUnits="userSpaceOnUse">
<stop offset="0.25" stop-color="#23B4E9"/>
<stop offset="0.28" stop-color="#2DB5DE"/>
<stop offset="0.34" stop-color="#47B9C2"/>
<stop offset="0.42" stop-color="#71BF94"/>
<stop offset="0.51" stop-color="#ABC854"/>
<stop offset="0.62" stop-color="#F8D300"/>
<stop offset="0.67" stop-color="#F7CD01"/>
<stop offset="0.73" stop-color="#F5BD02"/>
<stop offset="0.79" stop-color="#F2A205"/>
<stop offset="0.87" stop-color="#ED7D09"/>
<stop offset="0.92" stop-color="#E95B0C"/>
</linearGradient>
<linearGradient id="paint1_linear_401_8" x1="155.797" y1="-5.69214" x2="196.631" y2="35.4726" gradientUnits="userSpaceOnUse">
<stop offset="0.25" stop-color="#23B4E9"/>
<stop offset="0.28" stop-color="#2DB5DE"/>
<stop offset="0.34" stop-color="#47B9C2"/>
<stop offset="0.42" stop-color="#71BF94"/>
<stop offset="0.51" stop-color="#ABC854"/>
<stop offset="0.62" stop-color="#F8D300"/>
<stop offset="0.67" stop-color="#F7CD01"/>
<stop offset="0.73" stop-color="#F5BD02"/>
<stop offset="0.79" stop-color="#F2A205"/>
<stop offset="0.87" stop-color="#ED7D09"/>
<stop offset="0.92" stop-color="#E95B0C"/>
</linearGradient>
<linearGradient id="paint2_linear_401_8" x1="155.96" y1="-5.85148" x2="196.794" y2="35.3133" gradientUnits="userSpaceOnUse">
<stop offset="0.25" stop-color="#23B4E9"/>
<stop offset="0.28" stop-color="#2DB5DE"/>
<stop offset="0.34" stop-color="#47B9C2"/>
<stop offset="0.42" stop-color="#71BF94"/>
<stop offset="0.51" stop-color="#ABC854"/>
<stop offset="0.62" stop-color="#F8D300"/>
<stop offset="0.67" stop-color="#F7CD01"/>
<stop offset="0.73" stop-color="#F5BD02"/>
<stop offset="0.79" stop-color="#F2A205"/>
<stop offset="0.87" stop-color="#ED7D09"/>
<stop offset="0.92" stop-color="#E95B0C"/>
</linearGradient>
<linearGradient id="paint3_linear_401_8" x1="144.019" y1="5.99223" x2="184.853" y2="47.157" gradientUnits="userSpaceOnUse">
<stop offset="0.25" stop-color="#23B4E9"/>
<stop offset="0.28" stop-color="#2DB5DE"/>
<stop offset="0.34" stop-color="#47B9C2"/>
<stop offset="0.42" stop-color="#71BF94"/>
<stop offset="0.51" stop-color="#ABC854"/>
<stop offset="0.62" stop-color="#F8D300"/>
<stop offset="0.67" stop-color="#F7CD01"/>
<stop offset="0.73" stop-color="#F5BD02"/>
<stop offset="0.79" stop-color="#F2A205"/>
<stop offset="0.87" stop-color="#ED7D09"/>
<stop offset="0.92" stop-color="#E95B0C"/>
</linearGradient>
<linearGradient id="paint4_linear_401_8" x1="160.604" y1="-10.4615" x2="201.438" y2="30.7033" gradientUnits="userSpaceOnUse">
<stop offset="0.25" stop-color="#23B4E9"/>
<stop offset="0.28" stop-color="#2DB5DE"/>
<stop offset="0.34" stop-color="#47B9C2"/>
<stop offset="0.42" stop-color="#71BF94"/>
<stop offset="0.51" stop-color="#ABC854"/>
<stop offset="0.62" stop-color="#F8D300"/>
<stop offset="0.67" stop-color="#F7CD01"/>
<stop offset="0.73" stop-color="#F5BD02"/>
<stop offset="0.79" stop-color="#F2A205"/>
<stop offset="0.87" stop-color="#ED7D09"/>
<stop offset="0.92" stop-color="#E95B0C"/>
</linearGradient>
<linearGradient id="paint5_linear_401_8" x1="150.448" y1="-0.389132" x2="191.285" y2="40.7756" gradientUnits="userSpaceOnUse">
<stop offset="0.25" stop-color="#23B4E9"/>
<stop offset="0.28" stop-color="#2DB5DE"/>
<stop offset="0.34" stop-color="#47B9C2"/>
<stop offset="0.42" stop-color="#71BF94"/>
<stop offset="0.51" stop-color="#ABC854"/>
<stop offset="0.62" stop-color="#F8D300"/>
<stop offset="0.67" stop-color="#F7CD01"/>
<stop offset="0.73" stop-color="#F5BD02"/>
<stop offset="0.79" stop-color="#F2A205"/>
<stop offset="0.87" stop-color="#ED7D09"/>
<stop offset="0.92" stop-color="#E95B0C"/>
</linearGradient>
<linearGradient id="paint6_linear_401_8" x1="150.166" y1="-0.103776" x2="191" y2="41.061" gradientUnits="userSpaceOnUse">
<stop offset="0.25" stop-color="#23B4E9"/>
<stop offset="0.28" stop-color="#2DB5DE"/>
<stop offset="0.34" stop-color="#47B9C2"/>
<stop offset="0.42" stop-color="#71BF94"/>
<stop offset="0.51" stop-color="#ABC854"/>
<stop offset="0.62" stop-color="#F8D300"/>
<stop offset="0.67" stop-color="#F7CD01"/>
<stop offset="0.73" stop-color="#F5BD02"/>
<stop offset="0.79" stop-color="#F2A205"/>
<stop offset="0.87" stop-color="#ED7D09"/>
<stop offset="0.92" stop-color="#E95B0C"/>
</linearGradient>
<linearGradient id="paint7_linear_401_8" x1="142.531" y1="7.46712" x2="183.368" y2="48.6319" gradientUnits="userSpaceOnUse">
<stop offset="0.25" stop-color="#23B4E9"/>
<stop offset="0.28" stop-color="#2DB5DE"/>
<stop offset="0.34" stop-color="#47B9C2"/>
<stop offset="0.42" stop-color="#71BF94"/>
<stop offset="0.51" stop-color="#ABC854"/>
<stop offset="0.62" stop-color="#F8D300"/>
<stop offset="0.67" stop-color="#F7CD01"/>
<stop offset="0.73" stop-color="#F5BD02"/>
<stop offset="0.79" stop-color="#F2A205"/>
<stop offset="0.87" stop-color="#ED7D09"/>
<stop offset="0.92" stop-color="#E95B0C"/>
</linearGradient>
<clipPath id="clip0_401_8">
<rect width="214" height="125" fill="white"/>
</clipPath>
</defs>
</svg>
